<?xml version="1.0" encoding="UTF-8"?>
<svg version="1.1" xmlns="http://www.w3.org/2000/svg" width="884" height="524">
<path d="M0 0 C291.72 0 583.44 0 884 0 C884 172.92 884 345.84 884 524 C592.28 524 300.56 524 0 524 C0 351.08 0 178.16 0 0 Z " fill="#FDFDFD" transform="translate(0,0)"/>
<path d="M0 0 C1.9495603 0.00798979 3.89913401 0.01315901 5.84870911 0.01564026 C9.9232931 0.02785036 13.99679333 0.06272483 18.07104492 0.1159668 C23.28983421 0.18395774 28.50785978 0.21280948 33.72704601 0.22695827 C38.71396491 0.24209288 43.70069532 0.27650333 48.6875 0.3125 C50.11095262 0.32041471 50.11095262 0.32041471 51.56316185 0.3284893 C54.25092644 0.34697006 56.93816139 0.37913202 59.62573242 0.41577148 C60.41805267 0.41957825 61.21037292 0.42338501 62.02670288 0.42730713 C68.79095591 0.54558677 73.27353049 2.00780295 78.14453125 6.75390625 C81.34264262 12.00534831 83.19493362 17.60758556 84.80078125 23.50390625 C85.02979126 24.32028564 85.25880127 25.13666504 85.49475098 25.9777832 C86.21896513 28.5677715 86.93167384 31.16077234 87.64453125 33.75390625 C88.12169826 35.46113262 88.59955802 37.16816554 89.078125 38.875 C97.14453125 67.76921682 97.14453125 67.76921682 97.14453125 72.75390625 C97.75546631 72.61823242 98.36640137 72.48255859 98.99584961 72.34277344 C104.91988593 71.08414959 110.67256631 70.39489723 116.70703125 70.00390625 C129.95255023 69.01776666 143.03713824 66.94052767 156.14868164 64.87402344 C165.82909824 63.37286628 175.37564443 62.35465592 185.16333008 61.93139648 C190.15379818 61.70891103 195.11059968 61.2934429 200.08203125 60.81640625 C200.89091797 60.74228516 201.69980469 60.66816406 202.53320312 60.59179688 C206.7414923 60.19936354 210.94037397 59.78561421 215.13305664 59.25048828 C227.84968531 57.68348913 240.4531497 57.44551971 253.25756836 57.49316406 C256.76107357 57.50407455 260.26408652 57.49310533 263.76757812 57.48046875 C265.99869905 57.48178729 268.22981966 57.48434332 270.4609375 57.48828125 C271.50657364 57.48423279 272.55220978 57.48018433 273.62953186 57.47601318 C274.58911301 57.4823175 275.54869415 57.48862183 276.53735352 57.49511719 C277.38161392 57.49670837 278.22587433 57.49829956 279.09571838 57.49993896 C281.14453125 57.75390625 281.14453125 57.75390625 283.14453125 59.75390625 C283.67145486 64.63673174 282.48491417 67.9081872 280.45703125 72.31640625 C279.90031176 73.55507831 279.34566688 74.79468463 278.79296875 76.03515625 C278.3748291 76.96714844 278.3748291 76.96714844 277.94824219 77.91796875 C275.39737284 83.744985 273.26071856 89.76031556 271.0390625 95.71875 C268.05371724 103.63551883 264.7510685 111.38866838 261.37866211 119.14746094 C259.40104185 123.72249685 257.54236351 128.27455371 255.95703125 133.00390625 C252.35729181 143.26560692 246.16094937 149.99699199 236.48583984 154.75268555 C232.25742843 156.5608936 227.84298855 157.62521608 223.39453125 158.75390625 C221.43174363 159.27397771 219.46949713 159.79609597 217.5078125 160.3203125 C216.57662598 160.56797363 215.64543945 160.81563477 214.68603516 161.07080078 C201.52756191 164.60753547 184.592753 170.14720803 177.08375549 182.4987793 C176.73457565 183.12308838 176.38539581 183.74739746 176.02563477 184.390625 C175.40487061 185.50050781 174.78410645 186.61039063 174.14453125 187.75390625 C175.00988166 187.75276709 175.00988166 187.75276709 175.8927139 187.75160491 C210.05452398 187.70688716 244.21632743 187.67255258 278.37816038 187.65177559 C282.47639082 187.64927406 286.57462121 187.64668543 290.67285156 187.64404297 C291.48876477 187.64351835 292.30467799 187.64299373 293.14531584 187.64245321 C306.37125378 187.63374121 319.59717439 187.61796688 332.82310204 187.59960066 C346.38551945 187.58092369 359.94792776 187.5697942 373.5103575 187.56572926 C381.88484422 187.56297961 390.25928201 187.55428284 398.63375367 187.53807332 C404.36980177 187.5275336 410.10582442 187.52429875 415.8418815 187.5269035 C419.15550375 187.52818951 422.46902168 187.52508421 425.78263283 187.5154953 C429.36845379 187.50562289 432.95406111 187.50790905 436.53988647 187.51339722 C437.59628968 187.50757153 438.65269288 187.50174585 439.7411083 187.49574363 C440.69605739 187.49972573 441.65100648 187.50370783 442.63489342 187.50781059 C443.87771806 187.50667143 443.87771806 187.50667143 445.14565027 187.50550926 C447.14453125 187.75390625 447.14453125 187.75390625 449.14453125 189.75390625 C450.02298981 194.6732742 447.52167103 197.84731847 444.89453125 201.75390625 C440.92307393 207.88026396 437.17036426 214.08305669 433.58203125 220.44140625 C428.55438625 229.32045804 423.43334247 238.14113192 418.26953125 246.94140625 C417.90890594 247.55656097 417.54828064 248.1717157 417.17672729 248.80551147 C415.46349924 251.72743862 413.74670669 254.64711765 412.02441406 257.5637207 C410.82218014 259.60392729 409.62800873 261.64892021 408.44433594 263.69995117 C407.93032227 264.58142822 407.41630859 265.46290527 406.88671875 266.37109375 C406.44956543 267.12890137 406.01241211 267.88670898 405.56201172 268.66748047 C401.75627289 274.26924486 396.34401604 278.18492607 390.14453125 280.75390625 C387.03634971 281.16537411 383.96582823 281.13387401 380.83447266 281.09448242 C379.91676086 281.0949205 378.99904907 281.09535858 378.05352783 281.09580994 C375.03416324 281.09372764 372.0153608 281.07042278 368.99609375 281.046875 C366.89716902 281.04127706 364.79824036 281.0370079 362.6993103 281.03401184 C357.18533432 281.02257867 351.67159685 280.99312447 346.15771484 280.9598999 C340.52705105 280.92916617 334.89634857 280.91549943 329.265625 280.90039062 C318.22515585 280.86825345 307.18486341 280.81707544 296.14453125 280.75390625 C296.08394531 279.88507813 296.02335937 279.01625 295.9609375 278.12109375 C295.87714844 276.96867187 295.79335938 275.81625 295.70703125 274.62890625 C295.62582031 273.49195313 295.54460937 272.355 295.4609375 271.18359375 C295.1672216 267.99985845 294.71328812 264.89879718 294.14453125 261.75390625 C293.48453125 261.75390625 292.82453125 261.75390625 292.14453125 261.75390625 C291.9021875 261.23441406 291.65984375 260.71492188 291.41015625 260.1796875 C291.075 259.48230469 290.73984375 258.78492188 290.39453125 258.06640625 C290.0696875 257.38191406 289.74484375 256.69742188 289.41015625 255.9921875 C286.73399141 251.25934042 283.65900764 248.09667403 279.08203125 245.19140625 C277.79619141 244.35416016 277.79619141 244.35416016 276.484375 243.5 C266.7831629 238.42813823 258.47411769 237.18363206 247.57275391 237.30322266 C246.14083886 237.30431355 244.70892142 237.30355324 243.27700806 237.30110168 C240.21643517 237.29932535 237.1562317 237.30955079 234.0957222 237.32918167 C229.25426212 237.35926239 224.41315164 237.35646485 219.57162476 237.34848022 C207.55660473 237.33343835 195.54168879 237.35521332 183.5267334 237.39630127 C174.16650667 237.42824212 164.80668675 237.44752236 155.44641149 237.42478883 C150.63452322 237.41453976 145.8237715 237.43184379 141.01203465 237.46992898 C138.0223605 237.48745918 135.03312849 237.4800891 132.04345322 237.46578026 C130.65871668 237.46419945 129.27392409 237.47289608 127.889328 237.4926815 C117.48637594 237.63338249 117.48637594 237.63338249 114.23063278 235.49949265 C111.10369648 231.93600675 109.95267113 227.67018702 109.01953125 223.12890625 C108.72575308 221.82410773 108.43146664 220.51942356 108.13671875 219.21484375 C107.98372314 218.5175415 107.83072754 217.82023926 107.6730957 217.10180664 C105.69606456 208.31977036 103.29118703 199.68617822 100.70703125 191.06640625 C98.60460457 183.97908749 96.62314728 176.90852328 95.01953125 169.69140625 C93.89913214 164.65846482 92.5487134 159.80811682 90.83203125 154.94140625 C87.88479988 146.47266426 85.82638634 137.80378095 83.73120117 129.09057617 C81.6014473 120.30000623 79.42268468 111.44215148 76.05371094 103.03027344 C75.08852611 100.61368286 74.69664471 98.45123421 74.33203125 95.87890625 C73.44991968 90.69650079 71.911063 85.94416599 70.16821289 80.99316406 C68.32468534 75.61104897 67.01597462 70.1762191 65.76953125 64.62890625 C64.03840499 57.02104348 61.97011477 49.59993706 59.51953125 42.19140625 C59.23029785 41.30501465 58.94106445 40.41862305 58.64306641 39.50537109 C58.36253418 38.67859863 58.08200195 37.85182617 57.79296875 37 C57.54724121 36.27482178 57.30151367 35.54964355 57.04833984 34.80249023 C56.01224854 32.45407259 54.84216116 30.67936908 53.14453125 28.75390625 C49.74710972 27.62143241 47.13203548 27.61551988 43.54931641 27.59619141 C42.88391342 27.59111069 42.21851044 27.58602997 41.53294373 27.58079529 C40.08919206 27.57010345 38.64542394 27.56147862 37.20164871 27.55467606 C34.91481159 27.5428718 32.62816201 27.52341526 30.34140015 27.5015564 C23.8399684 27.43999086 17.33855657 27.38590562 10.83691406 27.35253906 C6.85864956 27.3315737 2.88072844 27.29625686 -1.09733963 27.25178146 C-2.61151712 27.23763713 -4.12575535 27.22890255 -5.63999557 27.22572708 C-7.76084996 27.22080857 -9.88079568 27.19762872 -12.00146484 27.17041016 C-13.20709076 27.1623233 -14.41271667 27.15423645 -15.65487671 27.14590454 C-20.46461965 26.55682259 -22.96708442 24.73833213 -26.16796875 21.19140625 C-28.49194236 16.45738593 -28.97068474 12.90459918 -27.85546875 7.75390625 C-22.22238169 -2.25435104 -9.7950956 -0.16181958 0 0 Z " fill="#070707" transform="translate(217.85546875,195.24609375)"/>
<path d="M0 0 C2.01864814 -0.00243318 4.03729507 -0.00615758 6.05593872 -0.01106262 C11.4910274 -0.02039531 16.92593362 -0.0111151 22.36100793 0.00226951 C28.06018592 0.01364793 33.75935577 0.0094721 39.45854187 0.00752258 C49.01161661 0.00664255 58.56461998 0.01766669 68.11767578 0.03613281 C79.17027859 0.05737482 90.22277753 0.06079191 101.27539665 0.05457085 C111.91944841 0.04888637 122.56346352 0.05450694 133.20750999 0.0657444 C137.73579777 0.07039452 142.26406316 0.07126257 146.79235268 0.06915855 C152.11040788 0.06728137 157.42835657 0.07533531 162.74638748 0.09121895 C164.70158765 0.09547574 166.65679859 0.09630305 168.61200142 0.09352875 C171.2708972 0.09032693 173.92947053 0.09933726 176.58833313 0.11161804 C177.36992005 0.10783872 178.15150697 0.10405939 178.95677835 0.10016555 C184.28216612 0.14398253 184.28216612 0.14398253 186.51049805 2.37231445 C186.18246703 6.39218545 184.65456482 9.14894569 182.51831055 12.51293945 C181.90109131 13.49262695 181.28387207 14.47231445 180.64794922 15.48168945 C179.65178589 17.03629883 179.65178589 17.03629883 178.63549805 18.62231445 C177.95656494 19.69481445 177.27763184 20.76731445 176.578125 21.87231445 C172.21889058 28.74433797 167.81354128 35.58703297 163.37329102 42.40698242 C160.28368736 47.155325 157.25613674 51.93918372 154.26049805 56.74731445 C153.84590332 57.41190674 153.43130859 58.07649902 153.00415039 58.76123047 C151.18982056 61.67136889 149.37972488 64.58392921 147.5769043 67.5012207 C137.14651916 84.20377507 137.14651916 84.20377507 130.51049805 86.37231445 C127.66425991 86.61726761 127.66425991 86.61726761 124.48521423 86.6104126 C123.27563049 86.61290512 122.06604675 86.61539764 120.81980896 86.6179657 C119.50078079 86.61069962 118.18175262 86.60343353 116.82275391 86.59594727 C115.41293339 86.59542273 114.00311223 86.59585941 112.59329224 86.59718323 C109.56057116 86.59851535 106.52793116 86.59411465 103.49522209 86.58557892 C98.69016894 86.57316932 93.88526539 86.58016191 89.08021545 86.59100342 C75.41736883 86.61942949 61.75464994 86.63197667 48.09179688 86.60229492 C40.54307325 86.58605863 32.99467661 86.5913375 25.44598681 86.6200912 C21.45703469 86.63432624 17.46876312 86.63753459 13.47984123 86.61386871 C9.72104204 86.59157213 5.96329509 86.59743191 2.20453262 86.62385368 C0.18628694 86.63081952 -1.83199508 86.60830965 -3.85011292 86.58454895 C-14.63637039 86.70538494 -22.88253014 89.86755538 -30.92700195 97.12231445 C-40.16862909 107.24592261 -41.97157211 120.2930352 -44.296875 133.31933594 C-45.09602031 137.659973 -46.1427186 141.83070951 -47.42700195 146.05981445 C-49.76870325 153.84438902 -51.19998436 161.76681624 -52.65141296 169.75801086 C-52.80850581 170.62271657 -52.96559866 171.48742228 -53.1274519 172.37833118 C-53.24692842 173.03634566 -53.36640493 173.69436014 -53.48950195 174.37231445 C-52.67484341 174.14922891 -52.67484341 174.14922891 -51.84372711 173.92163658 C-31.40268015 168.56749267 -11.41136069 168.68955759 9.5519352 168.8324132 C14.41468424 168.86035887 19.27744199 168.85997185 24.14025879 168.86312866 C32.27257381 168.87225863 40.40464892 168.89957226 48.53686523 168.94018555 C60.02214363 168.99749107 71.50730431 169.01942139 82.99270344 169.03547025 C90.96304391 169.04789239 98.93336637 169.06856211 106.90368462 169.09085035 C108.83341346 169.09621352 110.76314295 169.10134995 112.692873 169.10626268 C118.17131236 169.12051307 123.64968306 169.13987836 129.12807083 169.16773987 C130.78859888 169.1754844 132.44913577 169.1815362 134.10967636 169.18581772 C136.36544711 169.19199843 138.62109785 169.20433124 140.87683105 169.21841431 C142.77356945 169.22677276 142.77356945 169.22677276 144.70862579 169.23530006 C147.51049805 169.37231445 147.51049805 169.37231445 148.51049805 170.37231445 C149.3980746 175.65696566 146.55501001 179.55841865 144.07299805 183.99731445 C140.30257982 190.92925081 136.73413093 197.91398004 133.38549805 205.05981445 C132.99563721 205.8914209 132.60577637 206.72302734 132.20410156 207.57983398 C131.30284567 209.50908169 130.40612333 211.44044639 129.51049805 213.37231445 C128.85049805 213.37231445 128.19049805 213.37231445 127.51049805 213.37231445 C127.39730225 214.0885498 127.28410645 214.80478516 127.16748047 215.54272461 C125.97917917 220.6606778 123.25062719 225.11937318 120.82299805 229.74731445 C120.30543945 230.7630957 119.78788086 231.77887695 119.25463867 232.82543945 C115.27626951 240.45518854 111.45994297 247.58884309 103.32299805 251.24731445 C102.48381836 251.63661133 101.64463867 252.0259082 100.7800293 252.42700195 C96.4468924 254.23185415 92.81864125 254.5096002 88.19335938 254.48583984 C87.08079521 254.48605888 87.08079521 254.48605888 85.945755 254.48628235 C83.49465 254.4855858 81.04362103 254.47780543 78.5925293 254.4699707 C76.89287864 254.46810561 75.19322744 254.46668214 73.49357605 254.46568298 C69.02029943 254.461865 64.54705529 254.45204083 60.0737915 254.440979 C55.50907836 254.43074944 50.94435997 254.42618205 46.37963867 254.42114258 C37.4232442 254.41041794 28.46687382 254.39335012 19.51049805 254.37231445 C19.79592648 252.77956976 20.09062217 251.18848416 20.38916016 249.59814453 C20.55226181 248.71193924 20.71536346 247.82573395 20.88340759 246.91267395 C21.47387649 244.52066933 22.18073843 242.84828301 23.4519043 240.7590332 C25.74019409 236.99442742 27.07499528 233.34374391 28.44799805 229.18481445 C30.2216776 223.925469 32.13350732 218.8631192 34.44799805 213.80981445 C36.61256341 208.71959462 37.12717707 205.69784535 35.51049805 200.37231445 C33.24285975 197.40092634 30.95039451 195.76080108 27.51049805 194.37231445 C24.43926171 194.05550987 24.43926171 194.05550987 20.98999023 194.08178711 C20.34088243 194.07516902 19.69177464 194.06855093 19.0229969 194.06173229 C16.8677207 194.04294526 14.71272542 194.03910118 12.55737305 194.03637695 C11.03459464 194.02844762 9.5118183 194.02011348 7.98904419 194.01139832 C3.91996684 193.99260513 -0.14894231 193.9904431 -4.21805573 193.99475479 C-6.73690702 193.99731182 -9.25574495 193.99670053 -11.77459717 193.99594116 C-36.57021549 194.00461939 -60.90625872 194.94187225 -85.48950195 198.37231445 C-87.79887749 198.66422104 -90.10874765 198.95225232 -92.41918945 199.2355957 C-97.02500124 199.80746787 -101.62325725 200.4202958 -106.2199707 201.06079102 C-109.63941987 201.53015603 -113.06378608 201.95100665 -116.48950195 202.37231445 C-121.14373695 202.94679116 -125.7940549 203.54264002 -130.44262695 204.16137695 C-131.48290039 204.29930664 -132.52317383 204.43723633 -133.5949707 204.5793457 C-135.65516053 204.8531846 -137.71506935 205.12914788 -139.7746582 205.4074707 C-140.71696289 205.53250977 -141.65926758 205.65754883 -142.63012695 205.78637695 C-143.47091797 205.89933105 -144.31170898 206.01228516 -145.17797852 206.12866211 C-147.48950195 206.37231445 -147.48950195 206.37231445 -151.48950195 206.37231445 C-151.82048348 201.95922739 -150.98512293 198.98566792 -149.3371582 194.9309082 C-148.04586365 191.03322188 -147.45637383 187.03098856 -146.75585938 182.99194336 C-145.77697663 177.5323822 -144.45370384 172.22047028 -142.98950195 166.87231445 C-141.42557586 161.14135975 -140.06976584 155.47596236 -139.05200195 149.62231445 C-137.69726252 141.91191175 -135.71720117 134.42826137 -133.68115234 126.87255859 C-132.19289033 121.28359577 -130.94486051 115.76353249 -129.98950195 110.05981445 C-128.9539185 104.14657165 -127.44238431 98.56978183 -125.55200195 92.87231445 C-125.31094727 92.14230225 -125.06989258 91.41229004 -124.8215332 90.66015625 C-123.33719805 86.35173529 -121.55178034 82.336096 -119.45605469 78.29174805 C-118.55591868 76.50420844 -117.76760265 74.6615635 -116.98950195 72.81762695 C-111.8255093 60.95658132 -104.23232959 50.80332793 -95.48950195 41.37231445 C-94.98402832 40.8230127 -94.47855469 40.27371094 -93.95776367 39.70776367 C-83.14793516 28.08896764 -66.77267767 12.31192803 -50.48950195 10.37231445 C-50.48950195 9.71231445 -50.48950195 9.05231445 -50.48950195 8.37231445 C-48.3059275 7.58870547 -46.11846495 6.82082996 -43.92700195 6.05981445 C-42.70883789 5.63055664 -41.49067383 5.20129883 -40.2355957 4.7590332 C-26.75566172 0.60462747 -13.99718003 -0.05966564 0 0 Z " fill="#070707" transform="translate(481.489501953125,45.627685546875)"/>
<path d="M0 0 C1.27328659 -0.00137466 2.54657318 -0.00274933 3.85844421 -0.00416565 C5.27740502 -0.00062626 6.69636559 0.00300855 8.11532593 0.00672913 C9.60328672 0.00701107 11.09124766 0.00685312 12.57920837 0.00628662 C16.62649364 0.00599893 20.67374945 0.01189107 24.72102785 0.01886058 C28.94778578 0.02509885 33.17454433 0.02569829 37.40130615 0.02688599 C45.40879629 0.0299979 53.41627282 0.03820942 61.42375696 0.04823548 C70.53850109 0.05940094 79.65324586 0.06490816 88.76799512 0.06993091 C107.52098681 0.08039214 126.27396582 0.09798889 145.02694702 0.12025452 C145.02694702 0.78025452 145.02694702 1.44025452 145.02694702 2.12025452 C145.66632202 2.42962952 146.30569702 2.73900452 146.96444702 3.05775452 C149.02694702 4.12025452 149.02694702 4.12025452 150.02694702 5.12025452 C150.60864565 9.73569941 150.65111473 13.12158619 148.15194702 17.12025452 C144.74318244 20.32850354 142.72352559 20.25081596 138.12550354 20.27415466 C136.23903358 20.28705536 136.23903358 20.28705536 134.31445312 20.30021667 C132.91287273 20.30465203 131.51129189 20.30895038 130.10971069 20.31312561 C128.63971258 20.32102563 127.16971641 20.32929452 125.69972229 20.33790588 C120.86480566 20.36413638 116.02988031 20.379434 111.19491577 20.39369202 C109.53147183 20.39905117 107.86802795 20.40442868 106.20458412 20.40982437 C99.28607401 20.43145412 92.36756625 20.45019156 85.44903088 20.46144676 C75.52863155 20.4776908 65.6086236 20.51087817 55.68837184 20.56784761 C48.71591183 20.60652577 41.74355659 20.62607688 34.7709921 20.63136733 C30.60510203 20.63502359 26.4396293 20.64707347 22.27385521 20.67947006 C18.35441517 20.70951393 14.43564577 20.71587614 10.51611519 20.7040863 C9.07817461 20.70386526 7.64020325 20.71219617 6.20236969 20.72974014 C4.23815759 20.75240085 2.27364185 20.74116193 0.30934143 20.72825623 C-0.78960355 20.73156637 -1.88854853 20.73487652 -3.02079487 20.73828697 C-6.93934291 19.91796917 -8.43982332 18.14049269 -10.97305298 15.12025452 C-12.52329762 12.01976523 -12.26297313 9.54131234 -11.97305298 6.12025452 C-8.42983565 0.68732127 -6.28293388 -0.00520973 0 0 Z " fill="#0B0B0A" transform="translate(130.97305297851563,337.87974548339844)"/>
<path d="M0 0 C3.6384458 2.16356492 6.55776295 4.57163288 9.3125 7.8125 C10.01375 8.59625 10.715 9.38 11.4375 10.1875 C17.01064145 17.98989803 17.34509979 25.34038267 16.3125 34.8125 C13.77315546 43.58264365 7.32946876 50.91215558 -0.625 55.3125 C-8.25031681 58.25142419 -18.11394539 58.43852507 -25.796875 55.70703125 C-32.85517311 51.71802338 -39.71749473 44.95508589 -42.25 37.05859375 C-43.82673864 28.96373017 -43.7085664 19.02980217 -39.5 11.76171875 C-30.57951558 -1.10995849 -14.65500431 -7.0185111 0 0 Z " fill="#0B0B0B" transform="translate(383.6875,446.1875)"/>
<path d="M0 0 C6.98359178 4.477468 13.70316915 10.15185643 15.9375 18.4375 C17.04893872 29.2361376 15.76074295 37.77013734 8.9375 46.4375 C2.82724667 52.65448265 -3.27889568 56.72631875 -12.21557617 57.00756836 C-21.76491925 56.97409977 -27.63075317 55.40772585 -34.85546875 48.796875 C-40.98636556 42.3178038 -43.29737302 35.74653779 -43.5 26.875 C-43.17876975 17.11154738 -41.13512277 11.5946672 -34.33984375 4.4921875 C-24.93108933 -3.99667155 -11.3805929 -5.83137818 0 0 Z " fill="#0B0B0B" transform="translate(488.0625,446.5625)"/>
<path d="M0 0 C0.85916016 -0.0071553 1.71832031 -0.01431061 2.60351562 -0.02168274 C5.43747485 -0.03856142 8.26985013 -0.01917076 11.10375977 0.00219727 C13.07764313 0.00136841 15.05152643 -0.00109158 17.02540588 -0.00511169 C21.16054076 -0.00796923 25.29513386 0.00672597 29.43017578 0.03417969 C34.72424563 0.06823986 40.01734536 0.06225116 45.31146145 0.04351711 C49.38735501 0.03293493 53.46302387 0.04189643 57.53889656 0.05690193 C59.49048253 0.06207675 61.44209204 0.06161045 63.39367485 0.05535698 C66.1249399 0.04989098 68.8548293 0.07032472 71.5859375 0.09765625 C72.38872635 0.09113037 73.1915152 0.08460449 74.01863098 0.07788086 C79.22856078 0.16628615 82.21982172 1.18876361 86.35766602 4.63110352 C87.96613783 7.84804715 87.9707575 11.15247573 87.35766602 14.63110352 C85.18192186 17.3221555 83.44700745 19.0864328 80.35766602 20.63110352 C77.57738347 20.75043646 74.82138895 20.80947529 72.04003906 20.82397461 C71.17971069 20.8321521 70.31938232 20.84032959 69.4329834 20.84875488 C66.57845765 20.87362062 63.72398165 20.89012751 60.86938477 20.90454102 C59.89556162 20.90986469 58.92173847 20.91518837 57.91840553 20.92067337 C52.76445935 20.94740952 47.61053743 20.96678332 42.45654297 20.98120117 C37.12980325 20.99785421 31.80368161 21.04263623 26.47717571 21.09357262 C22.3842344 21.1272077 18.2914405 21.13877448 14.19837379 21.14442825 C12.23474209 21.1511506 10.27112041 21.16639812 8.30762291 21.19031906 C5.55905979 21.22189481 2.81217301 21.22201901 0.06347656 21.21459961 C-0.7476207 21.23100494 -1.55871796 21.24741028 -2.39439392 21.26431274 C-6.64776927 21.21731538 -8.18808518 20.99119413 -11.64494324 18.25088501 C-13.81327601 15.40689563 -14.32243303 14.15744218 -14.26733398 10.63110352 C-14.28022461 9.80610352 -14.29311523 8.98110352 -14.30639648 8.13110352 C-12.35136583 0.7709881 -6.69881888 -0.0973194 0 0 Z " fill="#0B0B0B" transform="translate(176.642333984375,292.368896484375)"/>
<path d="M0 0 C0.7437236 -0.0087616 1.4874472 -0.01752319 2.25370789 -0.02655029 C4.7029418 -0.0484899 7.15035833 -0.03401275 9.59960938 -0.01708984 C11.30684759 -0.02045959 13.01408346 -0.02531353 14.72131348 -0.03158569 C18.29572436 -0.03894959 21.86950962 -0.02826763 25.44384766 -0.00488281 C30.02077278 0.02360533 34.59623197 0.00719867 39.17310333 -0.02274513 C42.6973979 -0.04083156 46.22134612 -0.03505406 49.74565125 -0.02210617 C51.43291905 -0.01877584 53.12021852 -0.02284615 54.80744934 -0.03450394 C57.16805029 -0.04723572 59.52629306 -0.02780751 61.88671875 0 C62.58089401 -0.01012115 63.27506927 -0.02024231 63.99028015 -0.03067017 C67.82806014 0.05289153 69.36352332 0.58170277 72.37634277 3.04483032 C75.10008119 6.47371185 75.1086595 8.27787948 74.87695312 12.49072266 C74.23621495 15.67709627 72.77734592 17.45027944 70.44335938 19.64697266 C67.50936777 21.11396846 64.53754309 20.82873404 61.3190918 20.85571289 C60.58555984 20.86549667 59.85202789 20.87528046 59.0962677 20.88536072 C56.66380635 20.91532488 54.2314 20.93670253 51.79882812 20.95556641 C50.96842829 20.96213823 50.13802845 20.96871006 49.28246498 20.97548103 C44.88713916 21.00807883 40.49183764 21.03252884 36.09643555 21.05200195 C32.45773081 21.06982 28.81980035 21.10464617 25.18139648 21.15454102 C20.78938939 21.21470214 16.3981006 21.24547172 12.00570107 21.25517464 C10.33230548 21.26373749 8.65892951 21.28257635 6.98576927 21.31191826 C4.64159807 21.35081457 2.30022756 21.35187177 -0.04418945 21.34399414 C-0.73372711 21.36399475 -1.42326477 21.38399536 -2.13369751 21.40460205 C-4.87889344 21.36324806 -6.96542217 21.14190421 -9.10822105 19.3480854 C-11.66953361 16.37822806 -13.25252149 14.04671297 -13.18164062 10.08447266 C-13.19453125 9.36130859 -13.20742187 8.63814453 -13.22070312 7.89306641 C-11.26460208 1.27684227 -6.20793529 -0.09051241 0 0 Z " fill="#090909" transform="translate(220.556640625,385.35302734375)"/>
<path d="M0 0 C0.98325508 -0.0098568 0.98325508 -0.0098568 1.9863739 -0.01991272 C4.15912996 -0.03964861 6.33181688 -0.05130922 8.50463867 -0.0612793 C9.24677801 -0.06535482 9.98891735 -0.06943035 10.75354576 -0.07362938 C14.68204851 -0.09449195 18.61051632 -0.10879249 22.5390625 -0.11816406 C26.59454865 -0.12922549 30.64948563 -0.16362107 34.70477772 -0.20333576 C37.82493603 -0.2294968 40.94496344 -0.23785543 44.06522179 -0.24144554 C45.55994053 -0.24631335 47.05465335 -0.25793303 48.54926491 -0.27648354 C50.64396119 -0.30086468 52.73723616 -0.29991293 54.83203125 -0.29296875 C56.61834709 -0.30176811 56.61834709 -0.30176811 58.44075012 -0.31074524 C62.26520247 0.27781759 63.90849277 1.45106423 66.61010742 4.17700195 C67.81201644 7.782729 67.93681057 10.38724545 67.61010742 14.17700195 C65.47331457 17.56639751 64.43263072 18.90282752 60.61010742 20.17700195 C58.44448485 20.29659732 56.27541759 20.35671669 54.10668945 20.38574219 C53.45104004 20.39552597 52.79539062 20.40530975 52.11987305 20.41539001 C49.95257585 20.44527722 47.7853399 20.46670814 45.61791992 20.4855957 C44.87669765 20.49216753 44.13547539 20.49873936 43.37179184 20.50551033 C39.44978493 20.53807144 35.52780486 20.56253258 31.60571289 20.58203125 C28.36182189 20.59985751 25.11879809 20.63470087 21.87524414 20.68457031 C17.95539264 20.74476242 14.03634616 20.77550425 10.11605453 20.78520393 C8.62406922 20.79375962 7.13210549 20.81258114 5.64038467 20.84194756 C-6.01411971 21.05906668 -6.01411971 21.05906668 -9.420578 18.87504578 C-11.67751371 16.26213563 -13.07353293 13.58481683 -12.95239258 10.11450195 C-12.33829823 5.81584149 -11.46743868 4.16403199 -8.38989258 1.17700195 C-5.56039822 -0.23774523 -3.16418661 0.0262088 0 0 Z " fill="#090909" transform="translate(172.389892578125,247.822998046875)"/>
<path d="M0 0 C15.84 0 31.68 0 48 0 C46.56949455 2.86101089 45.45689833 4.8185604 43.5625 7.25 C38.79232958 13.86351061 37.91986613 19.72120481 37 28 C28.75 28 20.5 28 12 28 C11.34 24.04 10.68 20.08 10 16 C8.76280399 12.60014732 8.76280399 12.60014732 7.125 9.9375 C6.38636719 8.62072266 6.38636719 8.62072266 5.6328125 7.27734375 C3.9686049 4.9562121 2.28575259 3.66731303 0 2 C0 1.34 0 0.68 0 0 Z " fill="#0D0D0D" transform="translate(398,444)"/>
<path d="M0 0 C5.50005789 0.03273844 8.27295866 0.60048904 12.3125 4.3125 C13.91979993 7.52709986 13.93180855 10.83638103 13.3125 14.3125 C10.875 17.25 10.875 17.25 8.3125 19.3125 C7.9825 19.6425 7.6525 19.9725 7.3125 20.3125 C5.21333974 20.49108965 3.10627312 20.58048477 1 20.625 C-0.72669922 20.68107422 -0.72669922 20.68107422 -2.48828125 20.73828125 C-6.32301497 20.22791986 -7.33348521 19.30215265 -9.6875 16.3125 C-12.18781654 12.56202518 -12.22353554 10.75393734 -11.6875 6.3125 C-9.25 3.4375 -9.25 3.4375 -6.6875 1.3125 C-4.90677258 -0.46822742 -2.41106123 0.05634706 0 0 Z " fill="#0D0D0D" transform="translate(174.6875,385.6875)"/>
<path d="M0 0 C7.34991154 0.13837043 7.34991154 0.13837043 10.5625 2.4375 C13.01760943 5.80450722 13.46984666 7.451935 13.1484375 11.5078125 C12.2435377 15.89036644 10.40270939 18.00236041 6.75 20.4375 C3.71875 20.73828125 3.71875 20.73828125 0.25 20.75 C-1.46703125 20.77513672 -1.46703125 20.77513672 -3.21875 20.80078125 C-6.25 20.4375 -6.25 20.4375 -8.15625 19.04296875 C-9.25 17.4375 -9.25 17.4375 -9.25 15.4375 C-9.91 15.4375 -10.57 15.4375 -11.25 15.4375 C-11.52338445 10.06093913 -11.63994303 6.87050242 -8.25 2.4375 C-5.51178945 -0.30071055 -3.82225338 0.07417615 0 0 Z " fill="#0F0F0F" transform="translate(83.25,337.5625)"/>
<path d="M0 0 C3.30783583 1.19179379 3.82252492 1.97572906 6 5 C6.83322551 8.52963583 6.83884683 11.47105815 6 15 C3.19275193 18.79357847 3.19275193 18.79357847 0 20 C-5.01559512 20.74793962 -9.37600771 20.69599669 -14.0625 18.6875 C-17.22056199 15.93692988 -17.96856348 14.32484407 -18.375 10.125 C-18.28349961 5.98460745 -17.00506123 3.91667708 -14 1 C-9.78171449 -1.10914276 -4.58243943 -0.50120431 0 0 Z " fill="#0D0D0D" transform="translate(134,248)"/>
<path d="M0 0 C3.76110572 0.02155361 5.955079 0.3286021 8.875 2.75 C11.64799975 5.73630742 12.20163788 6.5672903 12.75 10.5625 C12.17274036 15.59290545 9.97150216 18.01933481 6.3125 21.375 C3.10636153 22.97806924 -0.20889997 22.86240461 -3.6875 22.375 C-7.12573122 20.2821636 -9.49919353 18.264003 -10.6875 14.375 C-11.26133966 9.21044304 -11.26133966 9.21044304 -10.6875 6.375 C-8.25 3.4375 -8.25 3.4375 -5.6875 1.375 C-4.05531064 -0.25718936 -2.24806873 0.08736889 0 0 Z " fill="#F3F3F3" transform="translate(473.6875,462.625)"/>
<path d="M0 0 C3.76110572 0.02155361 5.955079 0.3286021 8.875 2.75 C11.64799975 5.73630742 12.20163788 6.5672903 12.75 10.5625 C12.17274036 15.59290545 9.97150216 18.01933481 6.3125 21.375 C3.10636153 22.97806924 -0.20889997 22.86240461 -3.6875 22.375 C-7.12573122 20.2821636 -9.49919353 18.264003 -10.6875 14.375 C-11.26133966 9.21044304 -11.26133966 9.21044304 -10.6875 6.375 C-8.25 3.4375 -8.25 3.4375 -5.6875 1.375 C-4.05531064 -0.25718936 -2.24806873 0.08736889 0 0 Z " fill="#F1F1F1" transform="translate(369.6875,462.625)"/>
<path d="M0 0 C1.61648437 0.04060547 1.61648437 0.04060547 3.265625 0.08203125 C4.08546875 0.11683594 4.9053125 0.15164063 5.75 0.1875 C5.75 0.5175 5.75 0.8475 5.75 1.1875 C5.07453125 1.22488281 4.3990625 1.26226562 3.703125 1.30078125 C2.81109375 1.36652344 1.9190625 1.43226563 1 1.5 C0.11828125 1.55800781 -0.7634375 1.61601562 -1.671875 1.67578125 C-4.58705574 2.25440046 -5.97169878 3.34009488 -8.25 5.1875 C-8.91 5.1875 -9.57 5.1875 -10.25 5.1875 C-10.25 3.1875 -10.25 3.1875 -8.640625 1.57421875 C-5.57564292 -0.20367118 -3.51791199 -0.11471452 0 0 Z " fill="#2E2E2F" transform="translate(175.25,385.8125)"/>
<path d="M0 0 C0.66 0.33 1.32 0.66 2 1 C1.030625 1.845625 0.06125 2.69125 -0.9375 3.5625 C-4.20125576 6.78017921 -4.81523971 9.38099287 -5 14 C-5.33 14 -5.66 14 -6 14 C-6.61514196 6.74132492 -6.61514196 6.74132492 -3.5625 3.0625 C-2.716875 2.381875 -1.87125 1.70125 -1 1 C-0.67 0.67 -0.34 0.34 0 0 Z " fill="#C5C4C5" transform="translate(469,463)"/>
</svg>
