<?xml version="1.0" encoding="UTF-8"?>
<svg version="1.1" xmlns="http://www.w3.org/2000/svg" width="1052" height="660">
<path d="M0 0 C347.16 0 694.32 0 1052 0 C1052 217.8 1052 435.6 1052 660 C704.84 660 357.68 660 0 660 C0 442.2 0 224.4 0 0 Z " fill="#FCFCFC" transform="translate(0,0)"/>
<path d="M0 0 C2.39314323 -0.00107474 4.7862862 -0.00301627 7.1794281 -0.00575256 C13.63757477 -0.01057155 20.09565162 -0.00298341 26.55378985 0.00720048 C32.6393443 0.01601919 38.72490028 0.01436181 44.81045962 0.01392516 C56.86225862 0.01342619 68.91403094 0.02254336 80.96582031 0.03710938 C92.64323411 0.05121544 104.32062445 0.05827907 115.99804688 0.05761719 C117.07859114 0.05755725 117.07859114 0.05755725 118.18096458 0.05749611 C118.90012277 0.05745575 119.61928096 0.0574154 120.36023182 0.05737382 C133.68856946 0.0566833 147.01689721 0.06257503 160.34523163 0.07152704 C165.04697743 0.07453624 169.74872141 0.07560572 174.45046806 0.07605934 C180.77806353 0.07706457 187.10563445 0.08317597 193.43322182 0.09322548 C195.75356776 0.09614304 198.07391652 0.09737735 200.39426422 0.09679794 C203.56331944 0.09630609 206.73230626 0.10197426 209.90135193 0.10920715 C210.81720879 0.10765855 211.73306564 0.10610995 212.67667574 0.10451442 C217.88207549 0.12410818 222.87338054 0.49064944 228.02563477 1.24291992 C228.02563477 1.90291992 228.02563477 2.56291992 228.02563477 3.24291992 C228.72688477 3.32541992 229.42813477 3.40791992 230.15063477 3.49291992 C233.75333877 4.43275575 236.02802611 6.04059519 239.02563477 8.24291992 C239.85708008 8.8365332 239.85708008 8.8365332 240.70532227 9.44213867 C243.39194309 11.47959992 244.88621682 12.79479081 245.90063477 16.05541992 C245.96250977 17.13823242 245.96250977 17.13823242 246.02563477 18.24291992 C246.68563477 18.24291992 247.34563477 18.24291992 248.02563477 18.24291992 C251.68367603 31.09141197 249.24939405 43.38848961 246.06079102 56.00463867 C245.06455108 59.97424384 244.30280364 63.9621875 243.58813477 67.99291992 C242.32091345 75.06559888 240.70646912 82.03167188 239.00683594 89.01196289 C237.85619412 93.74099321 236.74191968 98.47353535 235.69750977 103.22729492 C235.4801416 104.21197754 235.26277344 105.19666016 235.03881836 106.21118164 C234.62477575 108.09702375 234.21593077 109.9840174 233.81323242 111.87231445 C232.68717137 116.97439125 231.25500382 121.51356475 229.02563477 126.24291992 C228.36563477 126.24291992 227.70563477 126.24291992 227.02563477 126.24291992 C226.76782227 126.81526367 226.51000977 127.38760742 226.24438477 127.97729492 C224.91197534 130.45420987 223.37507359 132.37703653 221.52563477 134.49291992 C220.91719727 135.19932617 220.30875977 135.90573242 219.68188477 136.63354492 C218.02563477 138.24291992 218.02563477 138.24291992 216.02563477 138.24291992 C215.69563477 139.23291992 215.36563477 140.22291992 215.02563477 141.24291992 C203.96332743 149.13591527 188.71970398 147.68085975 175.8203125 147.65942383 C173.69995649 147.66681521 171.57960473 147.67552371 169.45925903 147.68544006 C163.73417665 147.70864761 158.00920291 147.71390611 152.28407931 147.71609926 C146.27455995 147.72178654 140.26510994 147.74507872 134.25563049 147.76669312 C122.87705193 147.80514246 111.49849338 147.82940593 100.11986643 147.84781778 C79.74857812 147.88125523 59.37735056 147.93914572 39.00613362 148.00180948 C31.86504791 148.02321841 24.72398265 148.03853532 17.58287227 148.04864907 C13.13331536 148.05569724 8.68377305 148.06658134 4.23422623 148.07829094 C2.1800231 148.0828248 0.12581547 148.08569093 -1.92839241 148.08671379 C-21.72918476 147.318824 -21.72918476 147.318824 -40.28686523 152.86791992 C-40.97055176 153.22764893 -41.65423828 153.58737793 -42.35864258 153.95800781 C-47.40157324 156.70831201 -51.47626643 159.62819636 -54.97436523 164.24291992 C-55.51319336 164.89647461 -56.05202148 165.5500293 -56.60717773 166.22338867 C-64.38153613 176.53286394 -64.98821334 191.48541694 -67.08154297 203.91674805 C-67.53503526 206.60706374 -67.99546135 209.29612516 -68.45678711 211.98510742 C-70.17150887 222.04873832 -71.71924843 232.11102097 -72.97436523 242.24291992 C-72.12011963 242.0434375 -71.26587402 241.84395508 -70.38574219 241.63842773 C-63.39344194 240.00799671 -56.38843196 238.46101437 -49.36108398 236.98901367 C-47.00676492 236.47035745 -44.66530398 235.89115186 -42.33712482 235.26552868 C-37.84764648 234.14246936 -33.38485029 233.57684514 -28.78349304 233.13508606 C-27.91566907 233.05085823 -27.04784509 232.9666304 -26.15372342 232.87985021 C-16.44624672 232.00857811 -6.76771645 231.95401218 2.97167969 231.96826172 C4.97970771 231.96390028 6.98773408 231.95871244 8.99575806 231.95277405 C14.38138908 231.9395392 19.7669493 231.93878688 25.15259337 231.94133735 C29.66611034 231.94241586 34.17961348 231.93750237 38.69312745 231.93273193 C49.33725853 231.92169456 59.98135428 231.92116924 70.62548828 231.92724609 C81.5854867 231.93330687 92.54535743 231.92090844 103.50533408 231.89967602 C112.95039407 231.88205528 122.39541339 231.87605868 131.84048921 231.87931377 C137.46709675 231.88112304 143.09361276 231.87852416 148.72020531 231.86459923 C154.00061705 231.85201472 159.28082863 231.85397091 164.56123734 231.86701012 C166.49415594 231.86937254 168.4270887 231.86665322 170.35999107 231.85838699 C173.00533603 231.84789143 175.65001239 231.85604193 178.29533386 231.86869812 C179.0531203 231.86132384 179.81090673 231.85394955 180.59165639 231.8463518 C187.54805998 231.91600986 194.80520178 233.44706586 200.08813477 238.24291992 C200.94084961 238.98541992 200.94084961 238.98541992 201.81079102 239.74291992 C203.02563477 241.24291992 203.02563477 241.24291992 203.02563477 244.24291992 C203.68563477 244.24291992 204.34563477 244.24291992 205.02563477 244.24291992 C206.21968023 247.82505632 206.19445876 250.7791325 206.21313477 254.55541992 C206.22731445 255.85092773 206.24149414 257.14643555 206.25610352 258.48120117 C206.03382867 262.10917872 205.34622698 264.87619272 204.02563477 268.24291992 C203.36563477 268.24291992 202.70563477 268.24291992 202.02563477 268.24291992 C201.78780273 269.17297852 201.78780273 269.17297852 201.54516602 270.12182617 C198.61944643 281.22662926 195.23376286 292.04043696 190.27954102 302.41479492 C188.32271998 306.82831028 186.84430248 311.3987276 185.33422852 315.98120117 C183.94519873 319.44340975 182.16144387 322.19543278 180.02563477 325.24291992 C179.48938477 326.29479492 178.95313477 327.34666992 178.40063477 328.43041992 C170.0659358 343.11381536 153.9212808 353.92860879 137.88891602 358.50073242 C133.95880759 359.52943989 129.99973631 360.40017075 126.02563477 361.24291992 C125.38674096 361.41126217 124.74784716 361.57960442 124.08959293 361.75304794 C117.78403663 363.35655831 111.78112544 363.51105215 105.29882812 363.46655273 C103.58975029 363.46716454 103.58975029 363.46716454 101.84614563 363.4677887 C99.38591654 363.46798541 96.92568421 363.46397785 94.46546745 363.45618439 C90.56846987 363.44592112 86.67179023 363.45136715 82.77479553 363.46160889 C71.69974747 363.48995173 60.62486073 363.50249233 49.54980469 363.47290039 C42.76355319 363.45494893 35.97788315 363.46847616 29.19168282 363.4993515 C26.61095991 363.50545268 24.03018653 363.50059442 21.44950676 363.48447418 C17.84004703 363.46286086 14.2324552 363.47817635 10.62304688 363.50170898 C9.56256134 363.48634598 8.50207581 363.47098297 7.40945435 363.45515442 C0.12779571 363.55636103 -3.64859874 365.36236469 -8.97436523 370.24291992 C-15.8258497 374.97675599 -22.5994122 377.71935111 -30.59936523 379.93041992 C-32.57141069 380.4944146 -34.54278029 381.06077844 -36.51342773 381.62963867 C-37.91226196 382.03255127 -37.91226196 382.03255127 -39.33935547 382.44360352 C-42.96201914 383.54251956 -46.45030596 384.85996477 -49.97436523 386.24291992 C-50.89604492 386.59354492 -51.81772461 386.94416992 -52.76733398 387.30541992 C-57.09433268 388.99951403 -61.01954908 390.78452069 -64.97436523 393.24291992 C-66.04686523 393.63479492 -67.11936523 394.02666992 -68.22436523 394.43041992 C-75.00129504 397.23927899 -80.55376919 402.85100016 -83.97436523 409.24291992 C-86.61492007 416.46970157 -87.17703964 422.95710326 -84.22436523 430.11791992 C-81.79051318 435.04561334 -78.8774556 436.96648511 -73.97436523 439.24291992 C-73.97436523 439.90291992 -73.97436523 440.56291992 -73.97436523 441.24291992 C-62.08541388 441.38532215 -50.19636266 441.51756005 -38.30725479 441.64617157 C-35.16677519 441.68036646 -32.02630435 441.71529466 -28.88583374 441.75030518 C0.95903066 442.08005929 30.80266374 442.28442975 60.64906174 442.39386946 C67.44866269 442.41884723 74.24825061 442.44619987 81.0478363 442.47502136 C82.99774202 442.48323615 84.94764773 442.49145078 86.89755344 442.49966526 C89.82795613 442.51202455 92.75835863 442.52442057 95.68876064 442.5369395 C107.42172863 442.58684656 119.15464628 442.62699486 130.88769317 442.65256411 C138.3774957 442.66962716 145.86721309 442.69736535 153.35695004 442.73299402 C157.74685647 442.7534509 162.13663564 442.76872971 166.52659225 442.77097893 C170.59609586 442.77311638 174.66531233 442.78898989 178.73472822 442.81546128 C180.21441227 442.82264483 181.69413115 442.82479861 183.17382872 442.82139385 C199.31156294 442.7901083 199.31156294 442.7901083 206.08422852 447.75073242 C211.09275899 453.62475966 211.34098495 458.89642928 210.77172852 466.36791992 C210.12025474 471.87846798 208.20961299 476.74630384 206.15063477 481.86791992 C205.7987207 482.77026367 205.44680664 483.67260742 205.08422852 484.60229492 C203.60447368 488.37594481 202.08142618 492.11551564 200.45532227 495.82885742 C198.74851316 499.90468025 197.39112415 504.04331813 196.02563477 508.24291992 C194.72955802 512.12359488 193.41139395 515.99644163 192.08813477 519.86791992 C191.75362305 520.8656543 191.41911133 521.86338867 191.07446289 522.89135742 C188.47589338 530.46175644 185.8515695 536.59904565 180.02563477 542.24291992 C179.40688477 543.19166992 178.78813477 544.14041992 178.15063477 545.11791992 C173.7883902 551.53298546 169.89961684 554.66315713 162.56079102 557.29760742 C160.12009987 558.20769565 157.89059544 559.28020583 155.58813477 560.49291992 C152.02563477 562.24291992 152.02563477 562.24291992 149.02563477 562.24291992 C148.69563477 563.23291992 148.36563477 564.22291992 148.02563477 565.24291992 C140.19391242 567.77272478 132.29729986 567.51353437 124.14257812 567.4699707 C122.65358488 567.46940567 121.16459107 567.46972494 119.67559814 567.47085571 C115.65761464 567.47142664 111.63975194 567.45971467 107.62179637 567.4457078 C103.41376921 567.43315688 99.20573891 567.43202651 94.99769592 567.42965698 C87.04000126 567.42345499 79.08236191 567.40706158 71.12469155 567.386958 C62.06057602 567.36455904 52.99645777 567.35359554 43.93232143 567.34356713 C25.29672791 567.32269416 6.66118579 567.2875432 -11.97436523 567.24291992 C-11.31436523 565.26291992 -10.65436523 563.28291992 -9.97436523 561.24291992 C-9.31436523 561.24291992 -8.65436523 561.24291992 -7.97436523 561.24291992 C-5.19369394 549.7478234 -3.44161881 535.12993708 -8.97436523 524.24291992 C-9.31467773 523.57260742 -9.65499023 522.90229492 -10.00561523 522.21166992 C-15.76461586 512.09450666 -24.01564274 505.89582742 -34.97436523 502.24291992 C-34.97436523 501.58291992 -34.97436523 500.92291992 -34.97436523 500.24291992 C-50.65628009 499.5200973 -63.5022396 499.66822582 -76.04858398 510.37963867 C-82.88825255 516.99733016 -85.89408999 524.30194398 -88.97436523 533.24291992 C-96.77282105 533.52358414 -103.60248189 531.48516832 -110.97436523 529.24291992 C-111.8625293 528.98897461 -112.75069336 528.7350293 -113.66577148 528.47338867 C-119.83442634 526.29558531 -122.30926184 522.35283198 -125.90405273 517.05932617 C-132.26501635 508.40601529 -142.39867603 502.21462095 -152.97436523 500.24291992 C-157.7630338 499.9676178 -162.5346634 500.17799214 -167.32446289 500.34936523 C-180.72703699 500.6465595 -192.16413064 495.99106393 -202.53686523 487.49291992 C-203.0744043 487.06495117 -203.61194336 486.63698242 -204.16577148 486.19604492 C-209.83193882 480.07707372 -212.13512501 473.34558831 -214.09936523 465.36791992 C-214.57988233 463.49520195 -215.06164682 461.62280358 -215.54467773 459.75073242 C-215.77952881 458.82897217 -216.01437988 457.90721191 -216.25634766 456.95751953 C-216.94068902 454.37023916 -217.6884065 451.81387562 -218.47045898 449.25463867 C-220.11824341 443.85451613 -221.51680257 438.40032924 -222.91186523 432.93041992 C-224.77062989 425.72033649 -226.71625446 418.57308278 -228.97827148 411.47729492 C-230.23341882 407.40175771 -231.35223053 403.2942073 -232.47436523 399.18041992 C-233.87759706 394.04040796 -235.35372064 388.96747073 -237.09936523 383.93041992 C-239.60654431 376.62291017 -241.97436523 369.00640511 -241.97436523 361.24291992 C-242.63436523 361.24291992 -243.29436523 361.24291992 -243.97436523 361.24291992 C-244.72542875 358.55571316 -245.47538099 355.86820646 -246.22436523 353.18041992 C-246.4510791 352.36782715 -246.67779297 351.55523437 -246.91137695 350.71801758 C-247.99669996 346.81466291 -249.07023376 342.90965073 -250.09155273 338.98901367 C-250.26267578 338.33360596 -250.43379883 337.67819824 -250.61010742 337.00292969 C-251.07103303 335.22707807 -251.52677591 333.44988358 -251.98217773 331.67260742 C-252.94110369 328.16326147 -252.94110369 328.16326147 -254.41577148 324.55541992 C-256.43532199 319.29979816 -257.55201764 313.84980606 -258.78686523 308.36791992 C-260.74126355 299.92964817 -262.98192352 291.75128823 -265.85986328 283.58496094 C-267.85357382 277.84999891 -269.26645047 272.07858805 -270.57421875 266.15429688 C-271.68625822 261.20743789 -273.18925802 256.59248051 -275.03686523 251.87963867 C-276.44169432 247.92855686 -277.29763723 243.87219496 -278.16577148 239.77416992 C-279.0295708 237.0701025 -279.7385896 235.94845048 -281.97436523 234.24291992 C-284.72299102 233.32671133 -286.33708423 233.11641571 -289.16706848 233.11161804 C-290.02076523 233.10760986 -290.87446198 233.10360168 -291.75402832 233.09947205 C-293.15437317 233.10026512 -293.15437317 233.10026512 -294.58300781 233.10107422 C-295.56867233 233.09759979 -296.55433685 233.09412537 -297.56987 233.09054565 C-299.71262357 233.08318857 -301.85538476 233.07784293 -303.99814796 233.07425499 C-307.38999757 233.06709412 -310.78170213 233.05143039 -314.17350769 233.03291321 C-323.81812557 232.98042494 -333.46266423 232.93246015 -343.10742188 232.91699219 C-349.00490159 232.90691319 -354.90201687 232.87759036 -360.79935265 232.83567238 C-363.04677258 232.82335645 -365.29424397 232.81824219 -367.54169655 232.82047081 C-370.68737326 232.82282258 -373.8320037 232.80066572 -376.97753906 232.77294922 C-377.9050296 232.77955063 -378.83252014 232.78615204 -379.78811646 232.79295349 C-385.49149083 232.71047693 -388.57405606 231.93480913 -392.97436523 228.24291992 C-396.43805122 224.48119584 -398.28342861 220.69288476 -398.41186523 215.55541992 C-398.02399078 209.89245283 -396.80389359 206.80083763 -392.53686523 202.99291992 C-388.77227697 199.83814617 -385.83257241 199.11826839 -380.9642334 199.10920715 C-379.41213921 199.10280968 -379.41213921 199.10280968 -377.82868958 199.09628296 C-376.12672676 199.09696274 -376.12672676 199.09696274 -374.39038086 199.09765625 C-372.59741829 199.09261833 -372.59741829 199.09261833 -370.76823425 199.08747864 C-367.48937954 199.0795999 -364.21056281 199.07630073 -360.93169975 199.07566285 C-358.19548278 199.07471345 -355.4592719 199.07103491 -352.72305727 199.06749076 C-346.2692258 199.05934816 -339.81540828 199.0569064 -333.36157227 199.05761719 C-326.70016296 199.0582184 -320.03883453 199.0476575 -313.3774457 199.03187352 C-307.66018431 199.01880852 -301.9429494 199.01343283 -296.2256732 199.0140726 C-292.81007259 199.01432783 -289.39454389 199.0114626 -285.97895813 199.00089455 C-282.17201949 198.99114165 -278.36529135 198.99395395 -274.55834961 199 C-273.42370773 198.99438049 -272.28906586 198.98876099 -271.12004089 198.98297119 C-269.5679467 198.98926292 -269.5679467 198.98926292 -267.98449707 198.99568176 C-266.63392338 198.99486461 -266.63392338 198.99486461 -265.25606537 198.99403095 C-262.97436523 199.24291992 -262.97436523 199.24291992 -259.97436523 201.24291992 C-259.97436523 201.90291992 -259.97436523 202.56291992 -259.97436523 203.24291992 C-259.27311523 203.42854492 -258.57186523 203.61416992 -257.84936523 203.80541992 C-250.38232885 207.53893812 -247.81977212 214.34623121 -245.05249023 221.86401367 C-243.85340601 225.62201316 -242.89176632 229.40949395 -241.97436523 233.24291992 C-240.9793939 237.30666308 -239.97681432 241.36851607 -238.97436523 245.43041992 C-238.71397461 246.49711914 -238.45358398 247.56381836 -238.18530273 248.6628418 C-237.93006836 249.69344727 -237.67483398 250.72405273 -237.41186523 251.78588867 C-237.18370117 252.71425537 -236.95553711 253.64262207 -236.72045898 254.59912109 C-236.02463739 257.27176941 -236.02463739 257.27176941 -234.88452148 259.83398438 C-233.97436523 262.24291992 -233.97436523 262.24291992 -233.97436523 266.24291992 C-232.98436523 266.57291992 -231.99436523 266.90291992 -230.97436523 267.24291992 C-230.25249023 268.06791992 -229.53061523 268.89291992 -228.78686523 269.74291992 C-225.05881829 273.05673942 -222.8687524 272.99405278 -217.97436523 273.24291992 C-218.00289581 272.22249603 -218.03142639 271.20207214 -218.06082153 270.15072632 C-217.97841655 266.42603872 -217.46029943 263.32804498 -216.59106445 259.71801758 C-214.94303405 252.39243121 -213.95697942 245.09641693 -213.10717773 237.64135742 C-212.94489042 236.27103231 -212.78177312 234.90080527 -212.6178894 233.53067017 C-212.01954825 228.51522288 -211.43371801 223.49833943 -210.85131836 218.48101807 C-209.03921856 202.87318719 -207.15188055 187.32079725 -204.40405273 171.84448242 C-204.20675568 170.72995697 -204.00945862 169.61543152 -203.80618286 168.46713257 C-201.9864024 158.60425563 -199.37033403 149.05153144 -196.16186523 139.55541992 C-195.90397217 138.79068359 -195.6460791 138.02594727 -195.38037109 137.23803711 C-186.86913865 112.20287326 -175.69027192 89.19801183 -157.97436523 69.24291992 C-157.26022461 68.42049805 -156.54608398 67.59807617 -155.81030273 66.75073242 C-143.68862552 53.00140951 -130.57364578 40.9330027 -114.97436523 31.24291992 C-113.9134668 30.56874023 -112.85256836 29.89456055 -111.75952148 29.19995117 C-93.52796344 17.79619756 -74.96120474 10.52186427 -54.00952148 5.92651367 C-51.01540633 5.25216341 -48.06383971 4.47384119 -45.09936523 3.68041992 C-30.10668518 -0.00955579 -15.35193171 -0.04023864 0 0 Z " fill="#EE9137" transform="translate(588.974365234375,59.757080078125)"/>
<path d="M0 0 C2.39314323 -0.00107474 4.7862862 -0.00301627 7.1794281 -0.00575256 C13.63757477 -0.01057155 20.09565162 -0.00298341 26.55378985 0.00720048 C32.6393443 0.01601919 38.72490028 0.01436181 44.81045962 0.01392516 C56.86225862 0.01342619 68.91403094 0.02254336 80.96582031 0.03710938 C92.64323411 0.05121544 104.32062445 0.05827907 115.99804688 0.05761719 C116.71840972 0.05757723 117.43877256 0.05753728 118.18096458 0.05749611 C119.25970186 0.05743558 119.25970186 0.05743558 120.36023182 0.05737382 C133.68856946 0.0566833 147.01689721 0.06257503 160.34523163 0.07152704 C165.04697743 0.07453624 169.74872141 0.07560572 174.45046806 0.07605934 C180.77806353 0.07706457 187.10563445 0.08317597 193.43322182 0.09322548 C195.75356776 0.09614304 198.07391652 0.09737735 200.39426422 0.09679794 C203.56331944 0.09630609 206.73230626 0.10197426 209.90135193 0.10920715 C210.81720879 0.10765855 211.73306564 0.10610995 212.67667574 0.10451442 C217.88207549 0.12410818 222.87338054 0.49064944 228.02563477 1.24291992 C228.02563477 1.90291992 228.02563477 2.56291992 228.02563477 3.24291992 C228.72688477 3.32541992 229.42813477 3.40791992 230.15063477 3.49291992 C233.75333877 4.43275575 236.02802611 6.04059519 239.02563477 8.24291992 C239.57993164 8.63866211 240.13422852 9.0344043 240.70532227 9.44213867 C243.39194309 11.47959992 244.88621682 12.79479081 245.90063477 16.05541992 C245.96250977 17.13823242 245.96250977 17.13823242 246.02563477 18.24291992 C246.68563477 18.24291992 247.34563477 18.24291992 248.02563477 18.24291992 C251.68367603 31.09141197 249.24939405 43.38848961 246.06079102 56.00463867 C245.06455108 59.97424384 244.30280364 63.9621875 243.58813477 67.99291992 C242.32091345 75.06559888 240.70646912 82.03167188 239.00683594 89.01196289 C237.85619412 93.74099321 236.74191968 98.47353535 235.69750977 103.22729492 C235.4801416 104.21197754 235.26277344 105.19666016 235.03881836 106.21118164 C234.62477575 108.09702375 234.21593077 109.9840174 233.81323242 111.87231445 C232.68717137 116.97439125 231.25500382 121.51356475 229.02563477 126.24291992 C228.36563477 126.24291992 227.70563477 126.24291992 227.02563477 126.24291992 C226.76782227 126.81526367 226.51000977 127.38760742 226.24438477 127.97729492 C224.91197534 130.45420987 223.37507359 132.37703653 221.52563477 134.49291992 C220.91719727 135.19932617 220.30875977 135.90573242 219.68188477 136.63354492 C218.02563477 138.24291992 218.02563477 138.24291992 216.02563477 138.24291992 C215.69563477 139.23291992 215.36563477 140.22291992 215.02563477 141.24291992 C203.96332743 149.13591527 188.71970398 147.68085975 175.8203125 147.65942383 C173.69995649 147.66681521 171.57960473 147.67552371 169.45925903 147.68544006 C163.73417665 147.70864761 158.00920291 147.71390611 152.28407931 147.71609926 C146.27455995 147.72178654 140.26510994 147.74507872 134.25563049 147.76669312 C122.87705193 147.80514246 111.49849338 147.82940593 100.11986643 147.84781778 C79.74857812 147.88125523 59.37735056 147.93914572 39.00613362 148.00180948 C31.86504791 148.02321841 24.72398265 148.03853532 17.58287227 148.04864907 C13.13331536 148.05569724 8.68377305 148.06658134 4.23422623 148.07829094 C2.1800231 148.0828248 0.12581547 148.08569093 -1.92839241 148.08671379 C-21.72918476 147.318824 -21.72918476 147.318824 -40.28686523 152.86791992 C-40.97055176 153.22764893 -41.65423828 153.58737793 -42.35864258 153.95800781 C-47.40157324 156.70831201 -51.47626643 159.62819636 -54.97436523 164.24291992 C-55.51319336 164.89647461 -56.05202148 165.5500293 -56.60717773 166.22338867 C-64.82258829 177.11773745 -65.29126659 193.42230796 -67.47436523 206.55541992 C-68.06603983 210.09353074 -68.66006137 213.63124135 -69.25561523 217.16870117 C-69.39870117 218.01997589 -69.54178711 218.87125061 -69.68920898 219.74832153 C-71.01731359 227.59913648 -72.47075869 235.42402818 -73.97436523 243.24291992 C-75.2388147 243.50770142 -75.2388147 243.50770142 -76.52880859 243.77783203 C-79.64728828 244.43271061 -82.76503691 245.09093571 -85.88232422 245.75146484 C-87.23327621 246.03699626 -88.58451367 246.32118039 -89.93603516 246.60400391 C-91.87533379 247.010069 -93.81354081 247.42133667 -95.75170898 247.83276367 C-96.91951904 248.07889404 -98.0873291 248.32502441 -99.29052734 248.57861328 C-101.87732441 248.97371374 -101.87732441 248.97371374 -102.97436523 250.24291992 C-105.99183145 250.82212396 -109.00800706 251.35447305 -112.03686523 251.86791992 C-121.46084212 253.52752749 -130.81705163 255.43577861 -140.16186523 257.49291992 C-140.82662872 257.63912781 -141.49139221 257.78533569 -142.17630005 257.93597412 C-150.20796877 259.7068286 -158.22863803 261.52430861 -166.24389648 263.36791992 C-167.40298775 263.63424225 -167.40298775 263.63424225 -168.585495 263.90594482 C-172.3077951 264.76186814 -176.02906893 265.62183328 -179.74853516 266.48999023 C-206.8580549 272.78486512 -206.8580549 272.78486512 -216.97436523 272.24291992 C-217.22099857 265.0240012 -216.49701452 258.33840755 -215.22436523 251.24291992 C-213.48785246 241.01920095 -212.14376484 230.79273774 -210.97436523 220.49291992 C-206.35637915 180.189163 -206.35637915 180.189163 -202.47436523 161.05541992 C-202.28495361 160.10586426 -202.09554199 159.15630859 -201.90039062 158.17797852 C-200.72837793 152.68696392 -199.06699406 147.67884037 -196.89331055 142.50488281 C-195.70462507 139.57896067 -194.8886301 136.61100247 -194.09936523 133.55541992 C-182.45272643 92.14514861 -151.31197008 53.81539677 -114.97436523 31.24291992 C-113.9134668 30.56874023 -112.85256836 29.89456055 -111.75952148 29.19995117 C-93.52796344 17.79619756 -74.96120474 10.52186427 -54.00952148 5.92651367 C-51.01540633 5.25216341 -48.06383971 4.47384119 -45.09936523 3.68041992 C-30.10668518 -0.00955579 -15.35193171 -0.04023864 0 0 Z " fill="#EE8A36" transform="translate(588.974365234375,59.757080078125)"/>
<path d="M0 0 C-1.11375 0.4125 -2.2275 0.825 -3.375 1.25 C-13.49086306 4.98257126 -13.49086306 4.98257126 -23 10 C-24.0725 10.391875 -25.145 10.78375 -26.25 11.1875 C-33.02692981 13.99635907 -38.57940396 19.60808023 -42 26 C-44.64055483 33.22678165 -45.2026744 39.71418334 -42.25 46.875 C-39.81614795 51.80269342 -36.90309036 53.72356519 -32 56 C-32 56.66 -32 57.32 -32 58 C-20.11104864 58.14240223 -8.22199743 58.27464013 3.66711044 58.40325165 C6.80759005 58.43744654 9.94806089 58.47237474 13.08853149 58.50738525 C42.93339589 58.83713936 72.77702898 59.04150982 102.62342697 59.15094954 C109.42302792 59.17592731 116.22261584 59.20327995 123.02220154 59.23210144 C124.97210725 59.24031623 126.92201296 59.24853086 128.87191868 59.25674534 C131.80232136 59.26910463 134.73272387 59.28150065 137.66312587 59.29401958 C149.39609387 59.34392664 161.12901152 59.38407494 172.8620584 59.40964419 C180.35186094 59.42670724 187.84157832 59.45444543 195.33131528 59.4900741 C199.7212217 59.51053098 204.11100088 59.52580979 208.50095749 59.52805901 C212.57046109 59.53019646 216.63967756 59.54606996 220.70909345 59.57254136 C222.1887775 59.5797249 223.66849638 59.58187869 225.14819396 59.57847393 C241.28592817 59.54718838 241.28592817 59.54718838 248.05859375 64.5078125 C253.06712422 70.38183974 253.31535018 75.65350936 252.74609375 83.125 C252.09461997 88.63554805 250.18397822 93.50338392 248.125 98.625 C247.77308594 99.52734375 247.42117188 100.4296875 247.05859375 101.359375 C245.57883891 105.13302488 244.05579142 108.87259572 242.4296875 112.5859375 C240.7228784 116.66176033 239.36548938 120.80039821 238 125 C236.70392325 128.88067495 235.38575918 132.7535217 234.0625 136.625 C233.72798828 137.62273437 233.39347656 138.62046875 233.04882812 139.6484375 C230.45025862 147.21883652 227.82593474 153.35612572 222 159 C221.38125 159.94875 220.7625 160.8975 220.125 161.875 C215.76275543 168.29006554 211.87398207 171.4202372 204.53515625 174.0546875 C202.09446511 174.96477572 199.86496068 176.0372859 197.5625 177.25 C194 179 194 179 191 179 C190.67 179.99 190.34 180.98 190 182 C182.16827766 184.52980486 174.2716651 184.27061445 166.11694336 184.22705078 C164.62795011 184.22648575 163.13895631 184.22680502 161.64996338 184.22793579 C157.63197988 184.22850672 153.61411718 184.21679475 149.5961616 184.20278788 C145.38813445 184.19023696 141.18010414 184.18910659 136.97206116 184.18673706 C129.01436649 184.18053506 121.05672715 184.16414166 113.09905678 184.14403808 C104.03494125 184.12163912 94.970823 184.11067562 85.90668666 184.10064721 C67.27109314 184.07977423 48.63555103 184.04462328 30 184 C30.99 181.03 30.99 181.03 32 178 C32.66 178 33.32 178 34 178 C36.7806713 166.50490348 38.53274643 151.88701716 33 141 C32.6596875 140.3296875 32.319375 139.659375 31.96875 138.96875 C26.20974937 128.85158673 17.9587225 122.6529075 7 119 C7 118.34 7 117.68 7 117 C-8.68191485 116.27717738 -21.52787436 116.4253059 -34.07421875 127.13671875 C-40.91388731 133.75441024 -43.91972475 141.05902406 -47 150 C-54.79845581 150.28066422 -61.62811665 148.2422484 -69 146 C-69.88816406 145.74605469 -70.77632813 145.49210938 -71.69140625 145.23046875 C-77.8600611 143.05266538 -80.3348966 139.10991206 -83.9296875 133.81640625 C-90.29065111 125.16309537 -100.4243108 118.97170103 -111 117 C-115.78866857 116.72469788 -120.56029817 116.93507221 -125.35009766 117.10644531 C-137.20375807 117.36929332 -147.34049999 113.84648691 -157 107 C-153.35755088 105.85586944 -149.95206103 105.88508197 -146.15019226 105.89993286 C-145.46159317 105.90119513 -144.77299409 105.90245741 -144.06352836 105.90375793 C-141.75674857 105.9091343 -139.45006233 105.92165872 -137.14331055 105.93408203 C-135.48907613 105.93927558 -133.83484012 105.94398365 -132.18060303 105.94824219 C-128.6180293 105.95818292 -125.05548189 105.97103262 -121.49292564 105.98596573 C-115.85766481 106.00902924 -110.22240755 106.02233292 -104.58711243 106.03366089 C-88.56234211 106.06709409 -72.53762395 106.10869937 -56.51293945 106.17138672 C-47.66280264 106.20592584 -38.81270458 106.22972465 -29.96250755 106.24159515 C-25.2802493 106.2483626 -20.5981554 106.26080536 -15.91596031 106.28662491 C-11.51074084 106.31091612 -7.10570853 106.32126944 -2.70042419 106.32102966 C-1.08594951 106.32344746 0.52852713 106.33100713 2.14295006 106.34415817 C4.35194876 106.36139831 6.56020031 106.35995376 8.76924133 106.35403442 C10.00385762 106.35809862 11.23847391 106.36216282 12.51050282 106.36635017 C17.0562203 105.8891111 21.38798226 104.78574397 24.55859375 101.2734375 C26.91182712 96.19045343 28.05246111 91.59248945 27 86 C24.77561281 81.72596143 24.77561281 81.72596143 21 79 C21 78.34 21 77.68 21 77 C16.7885643 76.20325858 12.80510886 75.8700796 8.52142334 75.85523987 C7.23711426 75.84834137 5.95280518 75.84144287 4.62957764 75.83433533 C3.21887221 75.83162127 1.80816664 75.82898406 0.39746094 75.82641602 C-1.09769888 75.82010545 -2.59285683 75.8133391 -4.0880127 75.80615234 C-7.29968119 75.7915231 -10.51134262 75.77978241 -13.72303009 75.77020454 C-18.79844041 75.75472307 -23.87378897 75.7307774 -28.94915771 75.70530701 C-43.37850041 75.63417023 -57.80787718 75.57419447 -72.23730469 75.52319336 C-80.21252457 75.49493033 -88.1876817 75.45957955 -96.16283584 75.41653961 C-101.21180034 75.38972079 -106.26069394 75.37184519 -111.30971575 75.36050236 C-114.44336478 75.35140264 -117.57692708 75.33405481 -120.71052551 75.31432343 C-122.16742852 75.30682588 -123.62435371 75.30276555 -125.08127594 75.30232811 C-127.06399585 75.3012517 -129.04669548 75.28687944 -131.02935791 75.27174377 C-132.14062168 75.26751184 -133.25188545 75.2632799 -134.39682388 75.25891972 C-137 75 -137 75 -139 73 C-140.61765374 63.21883786 -136.7554165 55.27136025 -131.375 47.375 C-127.21364176 41.9261497 -122.61242185 37.89974871 -117 34 C-116.07960938 33.34386719 -115.15921875 32.68773437 -114.2109375 32.01171875 C-99.19342572 22.0194467 -81.85385688 17.3193518 -64.41015625 13.53808594 C-60.8136006 12.7351272 -57.2535666 11.80228329 -53.6875 10.875 C-48.45839108 9.55184491 -43.24361101 8.44459029 -37.9375 7.5 C-29.05063461 5.91678278 -20.41705522 3.59901028 -11.7578125 1.04296875 C-10.29988281 0.61951172 -10.29988281 0.61951172 -8.8125 0.1875 C-7.55373047 -0.19341797 -7.55373047 -0.19341797 -6.26953125 -0.58203125 C-3.81928058 -1.03328223 -2.33916165 -0.79047532 0 0 Z " fill="#4282E7" transform="translate(547,443)"/>
<path d="M0 0 C0.1844351 5.69840869 -0.36847237 10.50425798 -1.8125 16 C-3.20073191 21.56266536 -4.43454678 27.10118299 -5.4375 32.75 C-6.70494014 39.8226507 -8.31916127 46.788734 -10.01879883 53.76904297 C-11.16944064 58.49807328 -12.28371509 63.23061543 -13.328125 67.984375 C-13.54549316 68.96905762 -13.76286133 69.95374023 -13.98681641 70.96826172 C-14.40085901 72.85410383 -14.809704 74.74109747 -15.21240234 76.62939453 C-16.3384634 81.73147133 -17.77063094 86.27064483 -20 91 C-20.66 91 -21.32 91 -22 91 C-22.2578125 91.57234375 -22.515625 92.1446875 -22.78125 92.734375 C-24.11365942 95.21128995 -25.65056118 97.1341166 -27.5 99.25 C-28.1084375 99.95640625 -28.716875 100.6628125 -29.34375 101.390625 C-31 103 -31 103 -33 103 C-33.33 103.99 -33.66 104.98 -34 106 C-45.06230734 113.89299535 -60.30593078 112.43793983 -73.20532227 112.41650391 C-75.32567827 112.42389529 -77.44603003 112.43260378 -79.56637573 112.44252014 C-85.29145811 112.46572769 -91.01643186 112.47098619 -96.74155545 112.47317934 C-102.75107482 112.47886662 -108.76052483 112.5021588 -114.77000427 112.52377319 C-126.14858284 112.56222254 -137.52714139 112.58648601 -148.90576833 112.60489786 C-169.27705665 112.6383353 -189.6482842 112.6962258 -210.01950115 112.75888956 C-217.16058685 112.78029849 -224.30165211 112.7956154 -231.44276249 112.80572915 C-235.8923194 112.81277732 -240.34186171 112.82366142 -244.79140854 112.83537102 C-246.84561167 112.83990487 -248.8998193 112.84277101 -250.95402718 112.84379387 C-270.75481952 112.07590408 -270.75481952 112.07590408 -289.3125 117.625 C-289.99618652 117.984729 -290.67987305 118.34445801 -291.38427734 118.71508789 C-296.42720801 121.46539209 -300.50190119 124.38527643 -304 129 C-304.53882813 129.65355469 -305.07765625 130.30710938 -305.6328125 130.98046875 C-313.84822306 141.87481753 -314.31690136 158.17938804 -316.5 171.3125 C-317.09167459 174.85061082 -317.68569614 178.38832143 -318.28125 181.92578125 C-318.42433594 182.77705597 -318.56742188 183.62833069 -318.71484375 184.50540161 C-320.04294836 192.35621655 -321.49639345 200.18110825 -323 208 C-324.26444946 208.26478149 -324.26444946 208.26478149 -325.55444336 208.53491211 C-328.67292304 209.18979069 -331.79067168 209.84801579 -334.90795898 210.50854492 C-336.25891097 210.79407634 -337.61014844 211.07826047 -338.96166992 211.36108398 C-340.90096856 211.76714908 -342.83917557 212.17841675 -344.77734375 212.58984375 C-345.94515381 212.83597412 -347.11296387 213.08210449 -348.31616211 213.33569336 C-350.90295918 213.73079382 -350.90295918 213.73079382 -352 215 C-355.01746621 215.57920404 -358.03364183 216.11155313 -361.0625 216.625 C-370.48649787 218.28461127 -379.84258262 220.19327246 -389.1875 222.25 C-390.18314972 222.46881332 -390.18314972 222.46881332 -391.19891357 222.69204712 C-399.26808216 224.46957045 -407.32481681 226.29864503 -415.375 228.16015625 C-416.15482742 228.34007111 -416.93465485 228.51998596 -417.7381134 228.70535278 C-421.50632922 229.57507107 -425.27324019 230.44972616 -429.0378418 231.33496094 C-437.31187097 233.26400229 -445.57521446 234.85754871 -454 236 C-454 231.21791071 -452.32307371 228.7972581 -449.8125 224.9375 C-449.14951904 223.89879761 -449.14951904 223.89879761 -448.47314453 222.83911133 C-442.84613057 214.09364003 -436.95041838 205.52743286 -431 197 C-430.34427002 196.05495605 -430.34427002 196.05495605 -429.67529297 195.09082031 C-424.86211693 188.17491347 -424.86211693 188.17491347 -423 186 C-422.34 186 -421.68 186 -421 186 C-420.81824219 185.33613281 -420.63648438 184.67226563 -420.44921875 183.98828125 C-418.3455998 179.65063031 -415.15410242 176.61950325 -411.8125 173.1875 C-410.50515689 171.82812334 -409.19916342 170.46744739 -407.89453125 169.10546875 C-407.24830811 168.43169189 -406.60208496 167.75791504 -405.9362793 167.0637207 C-403.39385014 164.35395477 -400.96263052 161.55553097 -398.52954102 158.74780273 C-391.95979614 151.24057151 -384.4845651 144.58260861 -376.5 138.625 C-372.46337805 135.53694959 -369.2810672 132.06928649 -365.984375 128.21875 C-362.27520335 124.07148721 -358.34421039 119.78140346 -353 118 C-353 117.34 -353 116.68 -353 116 C-351.3203125 114.4921875 -351.3203125 114.4921875 -349.125 112.875 C-348.40570313 112.33617187 -347.68640625 111.79734375 -346.9453125 111.2421875 C-345 110 -345 110 -343 110 C-343 109.34 -343 108.68 -343 108 C-340.88691871 106.40057893 -338.78224041 104.93919957 -336.5625 103.5 C-335.88799805 103.05857666 -335.21349609 102.61715332 -334.51855469 102.16235352 C-311.50438919 87.24018023 -287.34348994 75.72768066 -261 68 C-260.03763428 67.70746338 -259.07526855 67.41492676 -258.08374023 67.11352539 C-247.89320565 64.08696566 -237.58578201 61.86683641 -227.1875 59.6875 C-225.32616063 59.29373188 -223.46491513 58.89951973 -221.60375977 58.50488281 C-217.85289615 57.71024181 -214.10149101 56.91823798 -210.34960938 56.12841797 C-205.49679864 55.10613913 -200.64637278 54.07302257 -195.796875 53.03515625 C-178.45983758 49.32816031 -161.09695479 45.77057214 -143.70068359 42.3515625 C-141.45321835 41.90954475 -139.20598393 41.4663517 -136.95898438 41.02197266 C-134.86316017 40.60749996 -132.76684699 40.19548756 -130.66992188 39.78662109 C-124.75262261 38.61528197 -118.9058658 37.26862741 -113.0612793 35.77685547 C-109.95435875 34.9884177 -106.84035137 34.23679043 -103.72265625 33.4921875 C-80.19599783 27.81382554 -57.27520628 20.5291434 -34.375 12.75 C-33.63369843 12.49964996 -32.89239685 12.24929993 -32.12863159 11.99136353 C-24.36108217 9.36093057 -16.73239972 6.62443426 -9.31884766 3.08691406 C-2.73315364 0 -2.73315364 0 0 0 Z " fill="#EC7734" transform="translate(838,95)"/>
<path d="M0 0 C17.44635617 -0.07018 34.89266809 -0.12303213 52.33913326 -0.15543652 C60.44041102 -0.17088448 68.54160091 -0.19193424 76.64282227 -0.22631836 C83.706467 -0.25628431 90.77004807 -0.27559005 97.8337546 -0.28226548 C101.57157657 -0.2861656 105.30921647 -0.29528783 109.0469799 -0.31719017 C113.22663211 -0.34148165 117.40597072 -0.34196539 121.58569336 -0.34057617 C122.81568558 -0.351362 124.0456778 -0.36214783 125.3129425 -0.3732605 C133.51932919 -0.34378772 141.70461508 0.22830305 148.0625 6 C148.91521484 6.7425 148.91521484 6.7425 149.78515625 7.5 C151 9 151 9 151 12 C151.66 12 152.32 12 153 12 C154.19404546 15.58213639 154.168824 18.53621258 154.1875 22.3125 C154.20167969 23.60800781 154.21585938 24.90351563 154.23046875 26.23828125 C154.00819391 29.8662588 153.32059222 32.6332728 152 36 C151.34 36 150.68 36 150 36 C149.84144531 36.62003906 149.68289063 37.24007812 149.51953125 37.87890625 C146.59381166 48.98370933 143.20812809 59.79751704 138.25390625 70.171875 C136.29708522 74.58539035 134.81866771 79.15580768 133.30859375 83.73828125 C131.91956396 87.20048983 130.1358091 89.95251286 128 93 C127.195625 94.5778125 127.195625 94.5778125 126.375 96.1875 C118.04030104 110.87089544 101.89564603 121.68568887 85.86328125 126.2578125 C81.93317282 127.28651997 77.97410154 128.15725083 74 129 C73.36044908 129.16830259 72.72089815 129.33660519 72.0619669 129.51000786 C65.77519759 131.10726458 59.79285422 131.27121256 53.32983398 131.22705078 C51.63074135 131.22748886 51.63074135 131.22748886 49.89732361 131.22793579 C46.1801671 131.22655048 42.46321493 131.21102684 38.74609375 131.1953125 C36.15820932 131.19157953 33.57032348 131.1887339 30.98243713 131.18673706 C24.88406905 131.1798998 18.78578438 131.16416188 12.68744761 131.14403808 C5.7393765 131.12161242 -1.20869823 131.11066896 -8.15679657 131.10064721 C-22.43790316 131.07979352 -36.718949 131.04465937 -51 131 C-51 130.34 -51 129.68 -51 129 C-49.7625 128.01 -49.7625 128.01 -48.5 127 C-37.28430635 117.91686782 -29.69806299 103.41420618 -25 90 C-24.34 90 -23.68 90 -23 90 C-22.92523437 89.45214844 -22.85046875 88.90429688 -22.7734375 88.33984375 C-21.75681623 82.2102155 -19.84052003 76.76456609 -17.45898438 71.03417969 C-15.42998348 66.13768716 -13.61016679 61.19528107 -11.875 56.1875 C-10.07249106 51.00779746 -8.21485246 45.87774082 -6.13671875 40.80078125 C-4.51228495 36.79831033 -2.94394999 32.77448764 -1.375 28.75 C-1.07343994 27.98051025 -0.77187988 27.21102051 -0.46118164 26.41821289 C2.9271915 18.4405595 2.9271915 18.4405595 4.375 10 C4.41753906 9.071875 4.41753906 9.071875 4.4609375 8.125 C3.76811944 4.93099132 1.83335789 2.66670239 0 0 Z " fill="#BE2B97" transform="translate(641,292)"/>
<path d="M0 0 C0.84608574 0.00384453 1.69217148 0.00768906 2.56389618 0.01165009 C3.51834373 0.01372215 4.47279129 0.01579422 5.4561615 0.01792908 C6.499076 0.0254847 7.54199051 0.03304031 8.61650848 0.04082489 C9.69662453 0.04497658 10.77674057 0.04912827 11.8895874 0.05340576 C15.28235158 0.06852407 18.67497893 0.09156265 22.06768036 0.11699677 C23.58716782 0.127556 23.58716782 0.127556 25.13735199 0.13832855 C32.18720967 0.18939178 39.23679106 0.26092977 46.28643036 0.33574677 C48.49415226 0.35827339 50.70187527 0.3806914 52.9095993 0.40300751 C58.63035457 0.4611174 64.35109387 0.52067 70.07183075 0.58055878 C75.94543809 0.64178064 81.81905982 0.7015888 87.69268036 0.76152802 C99.15102793 0.87866064 110.60935907 0.99732259 122.06768036 1.11699677 C122.06768036 1.44699677 122.06768036 1.77699677 122.06768036 2.11699677 C121.45514027 2.11938512 120.84260017 2.12177347 120.21149826 2.1242342 C105.2609192 2.18354281 90.31050397 2.25919325 75.36010361 2.35271168 C68.12999435 2.3975496 60.89993302 2.4369914 53.66973114 2.46343231 C47.36297237 2.4865102 41.05636685 2.520016 34.74972987 2.56569833 C31.41480572 2.58949995 28.0801702 2.60675718 24.74514771 2.61461067 C21.00900771 2.6242956 17.27341157 2.65240869 13.53740692 2.68462372 C12.44911087 2.68318863 11.36081482 2.68175354 10.2395401 2.68027496 C-3.53922971 2.84725622 -18.66180161 6.74293992 -28.93231964 16.49199677 C-29.96589726 17.67173688 -30.96650455 18.88116885 -31.93231964 20.11699677 C-32.47372589 20.77184052 -33.01513214 21.42668427 -33.57294464 22.10137177 C-41.77433047 33.01001117 -42.2483625 49.29122023 -44.43231964 62.42949677 C-45.02399423 65.96760759 -45.61801578 69.50531819 -46.21356964 73.04277802 C-46.35665558 73.89405273 -46.49974152 74.74532745 -46.64716339 75.62239838 C-47.975268 83.47321332 -49.42871309 91.29810502 -50.93231964 99.11699677 C-51.77528595 99.29351776 -52.61825226 99.47003876 -53.486763 99.65190887 C-56.60524269 100.30678745 -59.72299132 100.96501255 -62.84027863 101.62554169 C-64.19123062 101.9110731 -65.54246808 102.19525723 -66.89398956 102.47808075 C-68.8332882 102.88414585 -70.77149521 103.29541351 -72.70966339 103.70684052 C-73.87747345 103.95297089 -75.04528351 104.19910126 -76.24848175 104.45269012 C-78.83527882 104.84779058 -78.83527882 104.84779058 -79.93231964 106.11699677 C-82.94978585 106.69620081 -85.96596147 107.22854989 -88.99481964 107.74199677 C-98.41881752 109.40160803 -107.77490226 111.31026922 -117.11981964 113.36699677 C-117.78358612 113.51287231 -118.4473526 113.65874786 -119.13123322 113.80904388 C-127.2004018 115.58656721 -135.25713645 117.41564179 -143.30731964 119.27715302 C-144.08714706 119.45706787 -144.86697449 119.63698273 -145.67043304 119.82234955 C-149.43864886 120.69206784 -153.20555983 121.56672292 -156.97016144 122.4519577 C-165.24419061 124.38099906 -173.5075341 125.97454547 -181.93231964 127.11699677 C-181.93231964 122.33490747 -180.25539335 119.91425487 -177.74481964 116.05449677 C-177.30283234 115.3620285 -176.86084503 114.66956024 -176.40546417 113.95610809 C-170.77845021 105.21063679 -164.88273802 96.64442962 -158.93231964 88.11699677 C-158.49516632 87.48696747 -158.058013 86.85693817 -157.60761261 86.20781708 C-152.79443657 79.29191024 -152.79443657 79.29191024 -150.93231964 77.11699677 C-150.27231964 77.11699677 -149.61231964 77.11699677 -148.93231964 77.11699677 C-148.75056183 76.45312958 -148.56880402 75.78926239 -148.38153839 75.10527802 C-146.27791944 70.76762708 -143.08642206 67.73650002 -139.74481964 64.30449677 C-138.43747653 62.9451201 -137.13148306 61.58444416 -135.82685089 60.22246552 C-135.18062775 59.54868866 -134.5344046 58.8749118 -133.86859894 58.18071747 C-131.32616979 55.47095153 -128.89495016 52.67252773 -126.46186066 49.8647995 C-118.15012066 40.36699477 -108.7901905 32.5203565 -97.93231964 26.11699677 C-96.83983917 25.44603973 -96.83983917 25.44603973 -95.72528839 24.76152802 C-69.44458659 9.28715674 -41.47321382 2.31575827 -11.14765167 1.45806122 C-9.57539825 1.41105072 -9.57539825 1.41105072 -7.97138214 1.36309052 C-7.02472687 1.33916229 -6.07807159 1.31523407 -5.1027298 1.29058075 C-2.63441617 1.09317119 -2.39856011 0.14522637 0 0 Z " fill="#DF3B3B" transform="translate(565.9323196411133,203.88300323486328)"/>
<path d="M0 0 C1.52865644 0.00801312 3.05732578 0.01382114 4.58599854 0.01760864 C8.7100653 0.03426966 12.83321752 0.0822574 16.95693684 0.13666463 C21.28348302 0.18888572 25.61019428 0.21371485 29.93695068 0.24205017 C37.19647988 0.29355524 44.45561587 0.36421672 51.71484375 0.44775391 C60.10020899 0.54414254 68.48549343 0.61621277 76.87120843 0.67396837 C85.81615778 0.73563463 94.76092736 0.81228047 103.7057066 0.89479899 C106.2772451 0.91769764 108.84879405 0.93810913 111.42035675 0.95808601 C115.46214714 0.99041719 119.50370772 1.03301043 123.54531097 1.08348465 C125.02631709 1.10051449 126.50736504 1.11427543 127.98843384 1.12449074 C130.01339132 1.13907056 132.03823994 1.1669481 134.06304932 1.19544983 C135.76086737 1.21348711 135.76086737 1.21348711 137.49298477 1.23188877 C140.80848319 1.52235999 143.53625415 2.33225004 146.63964844 3.50756836 C146.63964844 4.16756836 146.63964844 4.82756836 146.63964844 5.50756836 C147.23777344 5.73444336 147.83589844 5.96131836 148.45214844 6.19506836 C151.4070334 7.96799934 152.28464707 9.32331514 153.63964844 12.50756836 C154.50345627 17.96100578 153.9075736 22.89127648 151.03070641 27.65717125 C148.54662152 30.96152204 145.49728801 32.37183709 141.63964844 33.50756836 C136.19623871 34.08250916 130.7779457 34.0345532 125.31298828 33.9934082 C123.65653687 33.99555637 122.00008694 33.99943747 120.34364319 34.00491333 C115.86230228 34.01457482 111.38136217 33.99934444 106.90006971 33.97900724 C102.20369927 33.96139028 97.50734035 33.9649622 92.8109436 33.96572876 C84.92760544 33.96385816 77.04442165 33.94652515 69.16113281 33.91918945 C60.05200076 33.88771945 50.94303753 33.87719417 41.83385503 33.87866056 C32.12543126 33.88001224 22.4170724 33.86612805 12.70866823 33.84776735 C9.91498219 33.84350875 7.12130664 33.84208556 4.32761765 33.84128952 C-0.0637204 33.83927791 -4.45491718 33.82704602 -8.84620857 33.80695724 C-10.45624361 33.80112494 -12.06629492 33.79865293 -13.6763401 33.79981232 C-15.87663063 33.80079704 -18.07652826 33.7894508 -20.27676392 33.7749939 C-21.50710672 33.77164221 -22.73744953 33.76829052 -24.00507545 33.76483727 C-29.9002173 33.3128218 -34.12326851 31.63600826 -38.36035156 27.50756836 C-41.37084367 23.46248459 -43.87949808 19.63667217 -44.36035156 14.50756836 C-43.67328125 14.41991211 -42.98621094 14.33225586 -42.27832031 14.24194336 C-38.68903605 13.33861613 -35.80972161 11.65152763 -32.67285156 9.75756836 C-30.94085974 8.72354339 -29.20609237 7.70077089 -27.45032883 6.707551 C-26.05987778 5.90920877 -24.68749009 5.07852962 -23.33559036 4.21651363 C-15.72247038 -0.21949904 -8.6115233 -0.15021414 0 0 Z " fill="#EDA03B" transform="translate(421.3603515625,516.492431640625)"/>
<path d="M0 0 C1.68424661 -0.00429513 3.3684874 -0.01205562 5.05270386 -0.02301025 C9.61518439 -0.0423575 14.17609369 -0.01184462 18.73838425 0.02880192 C23.51836018 0.06400941 28.29828996 0.05689247 33.07836914 0.05535889 C41.10492143 0.05910205 49.1308679 0.09378886 57.15722656 0.1484375 C66.42946016 0.21133666 75.70103055 0.23242974 84.9734621 0.22949529 C94.85541848 0.22679056 104.73712009 0.2545715 114.61899948 0.2912817 C117.46184004 0.29979569 120.30463932 0.30264487 123.14749146 0.30423737 C127.61943833 0.30826443 132.09083147 0.33275757 136.56259537 0.37290192 C138.20120984 0.3845553 139.83988806 0.38951282 141.47854233 0.38719177 C143.72057125 0.38521831 145.96106649 0.40794682 148.20288086 0.43682861 C149.45572372 0.44353199 150.70856659 0.45023537 151.99937439 0.45714188 C156.46194714 1.10798722 158.80479752 2.43992339 162.52734375 4.97167969 C165.49463231 9.42261252 165.28370376 13.75355961 164.52734375 18.97167969 C162.00087617 22.41048279 159.46236628 24.41170942 155.52734375 25.97167969 C152.40978336 26.22336197 152.40978336 26.22336197 148.66407776 26.22564697 C147.62906243 26.23032694 147.62906243 26.23032694 146.5731377 26.23510146 C144.26164351 26.24307703 141.95041215 26.2367596 139.63891602 26.23046875 C137.98143358 26.23317884 136.32395234 26.23673987 134.66647339 26.24108887 C130.16442201 26.25021376 125.66246221 26.24666801 121.16040921 26.2403307 C116.45019358 26.23527039 111.73998583 26.23996231 107.0297699 26.24310303 C99.1183837 26.24674294 91.20703483 26.24194329 83.2956543 26.23242188 C74.14910436 26.22154104 65.00264362 26.22506011 55.85609585 26.23607469 C48.00461424 26.24515133 40.15315947 26.24643087 32.30167431 26.24119735 C27.61171599 26.23807924 22.92179958 26.23766386 18.23184395 26.24427032 C13.82170438 26.25004849 9.41167974 26.24603823 5.00155258 26.23448181 C3.38303124 26.23183759 1.76450023 26.23259626 0.14598274 26.23700714 C-2.06361089 26.24247355 -4.27283642 26.23561533 -6.48240662 26.22564697 C-7.71886649 26.22489292 -8.95532637 26.22413887 -10.22925472 26.22336197 C-14.82866742 25.86645559 -17.66452036 24.51043695 -21.47265625 21.97167969 C-23.75478249 17.88787484 -24.4928481 13.53989237 -23.47265625 8.97167969 C-18.71545681 -1.06538835 -9.6686241 -0.14279275 0 0 Z " fill="#B727A2" transform="translate(153.47265625,434.0283203125)"/>
<path d="M0 0 C1.5 1.375 1.5 1.375 3 3 C3 3.66 3 4.32 3 5 C3.763125 5.226875 4.52625 5.45375 5.3125 5.6875 C8.68011723 7.33215028 9.48684067 8.59539151 11 12 C12.69481572 18.90963333 11.55719951 24.10805804 8.25 30.25 C5.75987667 33.29348407 3.37389804 35.0032032 0 37 C-0.845625 37.598125 -1.69125 38.19625 -2.5625 38.8125 C-5.63897075 40.31129344 -6.73436422 39.85687236 -10 39 C-11.7853143 38.35103174 -13.55694608 37.66312895 -15.3125 36.9375 C-16.19550781 36.57527344 -17.07851563 36.21304688 -17.98828125 35.83984375 C-18.65214844 35.56269531 -19.31601562 35.28554688 -20 35 C-20 34.34 -20 33.68 -20 33 C-35.68191485 32.27717738 -48.52787436 32.4253059 -61.07421875 43.13671875 C-67.91388731 49.75441024 -70.91972475 57.05902406 -74 66 C-81.79845581 66.28066422 -88.62811665 64.2422484 -96 62 C-96.88816406 61.74605469 -97.77632813 61.49210938 -98.69140625 61.23046875 C-104.8600611 59.05266538 -107.3348966 55.10991206 -110.9296875 49.81640625 C-117.29065111 41.16309537 -127.4243108 34.97170103 -138 33 C-142.78866857 32.72469788 -147.56029817 32.93507221 -152.35009766 33.10644531 C-164.20375807 33.36929332 -174.34049999 29.84648691 -184 23 C-180.35755088 21.85586944 -176.95206103 21.88508197 -173.15019226 21.89993286 C-172.46159317 21.90119513 -171.77299409 21.90245741 -171.06352836 21.90375793 C-168.75674857 21.9091343 -166.45006233 21.92165872 -164.14331055 21.93408203 C-162.48907613 21.93927558 -160.83484012 21.94398365 -159.18060303 21.94824219 C-155.6180293 21.95818292 -152.05548189 21.97103262 -148.49292564 21.98596573 C-142.85766481 22.00902924 -137.22240755 22.02233292 -131.58711243 22.03366089 C-115.56234211 22.06709409 -99.53762395 22.10869937 -83.51293945 22.17138672 C-74.66280264 22.20592584 -65.81270458 22.22972465 -56.96250755 22.24159515 C-52.2802493 22.2483626 -47.5981554 22.26080536 -42.91596031 22.28662491 C-38.51074084 22.31091612 -34.10570853 22.32126944 -29.70042419 22.32102966 C-28.08594951 22.32344746 -26.47147287 22.33100713 -24.85704994 22.34415817 C-22.64805124 22.36139831 -20.43979969 22.35995376 -18.23075867 22.35403442 C-16.99614238 22.35809862 -15.76152609 22.36216282 -14.48949718 22.36635017 C-9.95941184 21.89075227 -5.66652415 20.77094296 -2.44140625 17.34375 C0.32041833 11.55005578 0.42024942 6.35043562 0 0 Z " fill="#2D249D" transform="translate(574,527)"/>
<path d="M0 0 C-1.11375 0.4125 -2.2275 0.825 -3.375 1.25 C-13.49086306 4.98257126 -13.49086306 4.98257126 -23 10 C-24.0725 10.391875 -25.145 10.78375 -26.25 11.1875 C-35.00148784 14.88638593 -41.08092959 22.57731987 -45 31 C-45.89976187 33.68624557 -46.48245064 36.20523346 -47 39 C-47.33 39 -47.66 39 -48 39 C-48 37.35 -48 35.7 -48 34 C-54.02055928 35.98707665 -60.0344913 37.99324968 -66.04443359 40.01220703 C-68.83477148 40.94477824 -71.62983011 41.86177362 -74.42578125 42.77734375 C-91.81607409 48.5528565 -105.44943022 56.40980659 -117 71 C-117 71.33 -117 71.66 -117 72 C-116.39445723 71.99907821 -115.78891445 71.99815641 -115.1650219 71.99720669 C-100.37241791 71.97503977 -85.57981555 71.95853428 -70.78719902 71.94818783 C-63.63335444 71.94305028 -56.47952101 71.9360565 -49.32568359 71.92456055 C-43.08418683 71.91453554 -36.84269814 71.90812813 -30.60119355 71.90591151 C-27.30202809 71.90461756 -24.00289087 71.9010764 -20.70373154 71.89426994 C13.47977265 71.82659088 13.47977265 71.82659088 20 74 C19.67 74.66 19.34 75.32 19 76 C-1.30539965 75.9162067 -21.61071616 75.8211131 -41.91599846 75.71247292 C-51.3435592 75.6622973 -60.77111103 75.61585506 -70.19873047 75.578125 C-78.41342876 75.54523976 -86.62805887 75.50542796 -94.842682 75.45720994 C-99.19444379 75.43191032 -103.54616015 75.4101394 -107.89797592 75.39665604 C-111.99045075 75.38386694 -116.08277004 75.36184706 -120.17515945 75.33261681 C-121.68043084 75.32351625 -123.18572729 75.31784506 -124.69102478 75.31578636 C-126.73976084 75.3124814 -128.78846274 75.29585999 -130.83712769 75.2784729 C-131.98568174 75.27294214 -133.1342358 75.26741138 -134.31759453 75.26171303 C-137 75 -137 75 -139 73 C-140.61765374 63.21883786 -136.7554165 55.27136025 -131.375 47.375 C-127.21364176 41.9261497 -122.61242185 37.89974871 -117 34 C-116.07960938 33.34386719 -115.15921875 32.68773437 -114.2109375 32.01171875 C-99.19342572 22.0194467 -81.85385688 17.3193518 -64.41015625 13.53808594 C-60.8136006 12.7351272 -57.2535666 11.80228329 -53.6875 10.875 C-48.45839108 9.55184491 -43.24361101 8.44459029 -37.9375 7.5 C-29.05063461 5.91678278 -20.41705522 3.59901028 -11.7578125 1.04296875 C-10.29988281 0.61951172 -10.29988281 0.61951172 -8.8125 0.1875 C-7.55373047 -0.19341797 -7.55373047 -0.19341797 -6.26953125 -0.58203125 C-3.81928058 -1.03328223 -2.33916165 -0.79047532 0 0 Z " fill="#300D8A" transform="translate(547,443)"/>
<path d="M0 0 C1.3961982 -0.00856522 1.3961982 -0.00856522 2.82060242 -0.01730347 C4.34178932 -0.01898026 4.34178932 -0.01898026 5.89370728 -0.02069092 C6.96729996 -0.02565582 8.04089264 -0.03062073 9.14701843 -0.03573608 C12.70012044 -0.05034649 16.25317782 -0.0571574 19.80630493 -0.06268311 C22.27486167 -0.06843489 24.74341839 -0.07419262 27.2119751 -0.07995605 C32.38860279 -0.09046244 37.56521496 -0.09630768 42.74185181 -0.09979248 C49.37533071 -0.10528049 56.00860469 -0.12931683 62.64201927 -0.15776443 C67.74123739 -0.17638509 72.84040606 -0.18159609 77.9396553 -0.18312836 C80.38528185 -0.18615602 82.8309075 -0.19418832 85.2765007 -0.20731354 C88.69723892 -0.22436374 92.11747508 -0.22249616 95.53823853 -0.21600342 C97.05335274 -0.22982559 97.05335274 -0.22982559 98.59907532 -0.243927 C105.24750525 -0.2043877 109.67198716 0.67811796 114.72036743 5.32794189 C116.8805733 9.06675975 117.04017079 11.92015482 116.34536743 16.14044189 C114.56009318 20.50444562 111.65318002 23.27319406 107.34536743 25.14044189 C103.65481485 25.71876772 100.00809759 25.67693481 96.27871704 25.64215088 C94.62158943 25.65025536 94.62158943 25.65025536 92.9309845 25.65852356 C89.28628596 25.67101125 85.64237717 25.65451957 81.99771118 25.63653564 C79.46235615 25.63669062 76.92700087 25.63817934 74.39164734 25.64094543 C69.08142715 25.64232942 63.77148466 25.6302055 58.46133423 25.60699463 C52.32866512 25.58037347 46.19637435 25.57864351 40.06366724 25.59038299 C34.15402942 25.60117394 28.24450671 25.59486253 22.33487129 25.58082771 C19.82423869 25.57631012 17.31359497 25.57597909 14.80296135 25.57989311 C11.29594942 25.58280141 7.78955697 25.566316 4.28262329 25.54449463 C2.72475098 25.5512471 2.72475098 25.5512471 1.13540649 25.55813599 C-7.73838333 25.4663351 -7.73838333 25.4663351 -11.65463257 22.14044189 C-14.49238716 18.03059041 -15.30050605 14.23818413 -15.14291382 9.32794189 C-14.29336231 5.52195113 -11.87294583 3.20724858 -8.65463257 1.14044189 C-5.7183605 0.23542596 -3.06424731 0.01129404 0 0 Z " fill="#E95B4B" transform="translate(174.65463256835938,376.85955810546875)"/>
<path d="M0 0 C6.00682517 4.0163282 12.29874497 8.98492847 14.5625 16.1328125 C16.33249777 25.19198288 15.28498582 32.70604661 10.7578125 40.734375 C8.25667448 44.41414665 5.75915776 46.97669995 1.9921875 49.33203125 C1.35925781 49.74195313 0.72632813 50.151875 0.07421875 50.57421875 C-7.28835487 54.58012185 -16.43843558 54.74647618 -24.46875 52.70703125 C-31.54570962 49.57414794 -37.34897339 43.51569252 -40.5078125 36.51953125 C-43.37915559 28.13623491 -42.76992212 20.15145505 -39.46875 11.98046875 C-36.21396468 6.08008252 -31.4495011 1.94354572 -25.8828125 -1.73046875 C-17.40174279 -3.78234045 -7.87272975 -4.2037406 0 0 Z " fill="#4321BF" transform="translate(555.0078125,576.66796875)"/>
<path d="M0 0 C6.20028929 4.71149362 12.66737895 9.91236878 14 18 C15.06509744 27.70721715 13.50189286 34.88745287 8 43 C2.9726417 49.07931162 -4.25300907 52.45486169 -12.02734375 53.34765625 C-21.624858 53.62602047 -28.52325584 51.32434164 -35.9453125 45.19921875 C-41.40086224 39.35991361 -43.26928494 32.14683983 -43.5625 24.3125 C-43.13309682 15.08583681 -39.96063081 8.96822341 -33.1875 2.73046875 C-24.00179888 -4.53607696 -10.37194606 -5.87682201 0 0 Z " fill="#521CBA" transform="translate(443,577)"/>
<path d="M0 0 C0.80078476 -0.00817749 1.60156952 -0.01635498 2.42662048 -0.02478027 C5.05979691 -0.04946615 7.6929203 -0.06610137 10.32617188 -0.08056641 C11.22888321 -0.08589008 12.13159454 -0.09121376 13.06166077 -0.09669876 C17.83423002 -0.12334933 22.60677378 -0.14275523 27.37939453 -0.15722656 C31.32331389 -0.17059329 35.26671924 -0.19850754 39.21044922 -0.23925781 C43.98310182 -0.2885611 48.7552866 -0.31334328 53.52818298 -0.32045364 C55.34306456 -0.32716304 57.1579358 -0.34237704 58.97267151 -0.36634445 C61.51228342 -0.3979893 64.05008619 -0.39803517 66.58984375 -0.390625 C67.33495712 -0.40703033 68.0800705 -0.42343567 68.84776306 -0.44033813 C74.59439161 -0.37184741 76.91545109 1.25428978 80.79492188 5.19287109 C82.78862142 9.18027018 82.45257166 13.86943267 81.79492188 18.19287109 C79.5826639 21.81929398 76.84887951 23.84155188 72.79492188 25.19287109 C70.14014839 25.31461818 67.51030966 25.3813331 64.85449219 25.40161133 C63.64175125 25.416287 63.64175125 25.416287 62.4045105 25.43125916 C59.72737265 25.46118654 57.05028467 25.48259155 54.37304688 25.50146484 C53.00017643 25.51132258 53.00017643 25.51132258 51.59957123 25.52137947 C46.75454758 25.553962 41.90954582 25.57841515 37.06445312 25.59790039 C33.05826781 25.61571036 29.05278678 25.65052689 25.046875 25.70043945 C20.20632993 25.76067828 15.36643764 25.79138101 10.52553558 25.80107307 C8.68354445 25.80962271 6.84157053 25.82842882 4.99979401 25.8578167 C2.41673628 25.89681224 -0.16378715 25.89775628 -2.74707031 25.88989258 C-3.50265228 25.90989319 -4.25823425 25.9298938 -5.03671265 25.95050049 C-10.30762582 25.87875011 -13.01055311 24.32059184 -16.87352371 20.77383518 C-19.65665664 17.46940153 -19.60263184 13.60854929 -19.54882812 9.48583984 C-18.94129867 5.43334221 -17.28391053 3.87011667 -14.20507812 1.19287109 C-9.51073993 0.05893068 -4.8052657 0.02747258 0 0 Z " fill="#479AF2" transform="translate(255.205078125,492.80712890625)"/>
<path d="M0 0 C1.16884987 -0.01489471 1.16884987 -0.01489471 2.36131287 -0.03009033 C4.94110646 -0.05931594 7.52065394 -0.07293548 10.10058594 -0.08398438 C11.89556891 -0.09549058 13.69055182 -0.10700601 15.48553467 -0.11853027 C19.25159856 -0.13954645 23.01757713 -0.15123359 26.78369141 -0.15820312 C31.60036154 -0.16916002 36.41589723 -0.21718592 41.23221207 -0.27414703 C44.94180547 -0.31147413 48.65112794 -0.3218149 52.36089325 -0.32487488 C54.13588398 -0.33091452 55.91087069 -0.34692682 57.68567657 -0.37324524 C73.31712473 -0.58845665 73.31712473 -0.58845665 77.91601562 3.23828125 C80.99711429 7.16646436 81.69464539 9.18352841 81.61230469 14.22460938 C81.14866393 17.73130077 79.64212849 19.7115234 77.33496094 22.32226562 C72.74130737 25.15731229 68.86068457 25.7563259 63.57299805 25.71044922 C62.81937485 25.71570618 62.06575165 25.72096313 61.28929138 25.72637939 C58.81341452 25.73951745 56.33818739 25.73086455 53.86230469 25.72070312 C52.13407773 25.72272544 50.40585161 25.72563819 48.67762756 25.72940063 C45.06226446 25.7338154 41.44712424 25.72741953 37.83178711 25.71337891 C33.20253002 25.69627461 28.57379428 25.70614131 23.94455624 25.7240963 C20.37830184 25.73494614 16.8121707 25.73148252 13.24591255 25.72371292 C11.53910828 25.7217149 9.83229274 25.72415621 8.12550163 25.73115158 C5.73920993 25.73878737 3.35375856 25.72713334 0.9675293 25.71044922 C0.26557434 25.71652191 -0.43638062 25.7225946 -1.15960693 25.72885132 C-5.48945343 25.6728882 -8.21561266 24.96457631 -11.66503906 22.32226562 C-12.97753906 20.13476562 -12.97753906 20.13476562 -13.66503906 18.32226562 C-14.32503906 18.32226562 -14.98503906 18.32226562 -15.66503906 18.32226562 C-16.45001249 8.36182503 -16.45001249 8.36182503 -13.35253906 4.25976562 C-8.58323231 0.8214282 -5.76884926 0.0175327 0 0 Z " fill="#EF9F3D" transform="translate(182.6650390625,320.677734375)"/>
<path d="M0 0 C1.875 0.3125 1.875 0.3125 4 1 C6.43294771 4.64942157 6.06602508 5.46208166 5.33203125 9.66015625 C5.02966553 11.40643311 5.02966553 11.40643311 4.72119141 13.18798828 C3.44142467 19.95246959 2.09276686 26.69824903 0.6875 33.4375 C0.37593106 34.94723945 0.06449044 36.45700538 -0.24682617 37.96679688 C-2.16467344 47.22491962 -4.24783003 56.43216668 -6.43896484 65.62963867 C-7.71181522 71.1660593 -8.45626989 76.59416691 -8.9375 82.25 C-9.49591494 88.57776372 -10.74291996 94.34418106 -12.75 100.375 C-12.9780835 101.06368164 -13.20616699 101.75236328 -13.44116211 102.46191406 C-15.76161163 109.0084813 -18.83495011 114.66990021 -22 121 C1.76 121.33 25.52 121.66 50 122 C50 122.33 50 122.66 50 123 C15.02 123 -19.96 123 -56 123 C-50 115 -50 115 -46.625 111.375 C-39.48161582 103.32879343 -34.53307288 93.08785284 -31 83 C-30.34 83 -29.68 83 -29 83 C-28.92523437 82.45214844 -28.85046875 81.90429688 -28.7734375 81.33984375 C-27.75681623 75.2102155 -25.84052003 69.76456609 -23.45898438 64.03417969 C-21.42998161 59.13768265 -19.61022681 54.19526478 -17.875 49.1875 C-15.7402685 43.05545976 -13.52783668 36.98361342 -11 31 C-10.52626953 29.86884766 -10.52626953 29.86884766 -10.04296875 28.71484375 C-8.00911135 23.99078453 -5.69138816 19.55526193 -3.05078125 15.140625 C-1.88616955 12.76810748 -1.45927186 10.59252524 -1 8 C-0.67 7.34 -0.34 6.68 0 6 C0.039992 4.00039988 0.04346799 1.99952758 0 0 Z " fill="#76188D" transform="translate(647,299)"/>
<path d="M0 0 C1.85625 0.0309375 1.85625 0.0309375 3.75 0.0625 C2.698125 1.0834375 2.698125 1.0834375 1.625 2.125 C1.16738281 2.59292969 0.70976563 3.06085937 0.23828125 3.54296875 C-0.72298432 4.52441837 -1.70388466 5.48718029 -2.70703125 6.42578125 C-8.32163474 12.1588988 -10.56424752 19.66239475 -13.25 27.0625 C-21.04845581 27.34316422 -27.87811665 25.3047484 -35.25 23.0625 C-36.58224609 22.68158203 -36.58224609 22.68158203 -37.94140625 22.29296875 C-44.13043034 20.10797416 -46.87383219 16.05774704 -50.453125 10.703125 C-52.47161708 7.73681925 -54.60394913 5.4604836 -57.25 3.0625 C-56.26773437 3.07990234 -56.26773437 3.07990234 -55.265625 3.09765625 C-50.2439453 3.14730563 -45.31416705 3.03161276 -40.3125 2.5625 C-36.31014079 2.19162502 -32.39412744 2.01980011 -28.375 2.0625 C-18.82331031 2.15070822 -9.37593729 -0.15626562 0 0 Z " fill="#4124BD" transform="translate(513.25,565.9375)"/>
<path d="M0 0 C3.83579264 0.67251523 6.20464239 2.22427901 8.77197266 5.08203125 C11.12374028 9.48211262 11.33159927 13.57702719 9.98291016 18.34765625 C7.28105332 21.99516298 4.25217095 23.92456932 -0.01708984 25.34765625 C-2.13873664 25.49320458 -4.2656569 25.56846037 -6.39208984 25.59765625 C-7.51357422 25.6234375 -8.63505859 25.64921875 -9.79052734 25.67578125 C-14.45956214 25.20096415 -16.98083776 23.32789471 -20.32958984 20.16015625 C-22.56455566 16.43521323 -22.73293796 13.59099691 -22.01708984 9.34765625 C-20.76708984 6.59765625 -20.76708984 6.59765625 -19.01708984 4.34765625 C-18.49115234 3.65542969 -17.96521484 2.96320313 -17.42333984 2.25 C-12.71157881 -1.47504485 -5.75998969 -0.56432765 0 0 Z " fill="#3C7CF0" transform="translate(201.01708984375,492.65234375)"/>
<path d="M0 0 C3.68456543 2.20397859 5.88324304 3.96398783 7.50390625 8.0234375 C8.06816106 13.00768833 7.44698556 16.37551553 4.7421875 20.51171875 C2.51817183 23.22684198 0.89962869 24.01067818 -2.49609375 25.0234375 C-14.85634139 26.12869894 -14.85634139 26.12869894 -20.49609375 22.0234375 C-23.68425306 18.28559556 -23.95434292 14.90991379 -23.7890625 10.171875 C-23.20347353 5.87755587 -20.76113387 2.74430426 -17.49609375 0.0234375 C-11.96086901 -1.82163741 -5.48793306 -2.14707866 0 0 Z " fill="#DE3B62" transform="translate(98.49609375,434.9765625)"/>
<path d="M0 0 C4.03587667 1.81999343 7.96683806 3.93367612 10 8 C10.55155363 13.73615779 9.58359475 16.52050657 6 21 C5.18402344 22.05960937 5.18402344 22.05960937 4.3515625 23.140625 C1.08519853 25.72333139 -1.88331832 25.62475559 -5.875 25.5625 C-6.56980469 25.58634766 -7.26460937 25.61019531 -7.98046875 25.63476562 C-11.86480293 25.62379293 -14.40567381 25.05918052 -17.3828125 22.65234375 C-20.76461132 19.22511778 -22.34330255 17.02403053 -22.625 12.25 C-22.50349423 8.10665337 -21.75161531 5.88684081 -18.875 2.875 C-13.16339382 -1.39602345 -6.79705295 -1.26186746 0 0 Z " fill="#F1AF44" transform="translate(133,321)"/>
<path d="M0 0 C88.44 0 176.88 0 268 0 C268 0.66 268 1.32 268 2 C269.98 2.33 271.96 2.66 274 3 C274 3.66 274 4.32 274 5 C272.9913942 4.67624893 271.98278839 4.35249786 270.94361877 4.01893616 C264.36623421 2.39055549 257.6349088 2.69904209 250.90209961 2.69702148 C249.36866152 2.68932575 247.8352276 2.68075634 246.30179882 2.67138767 C242.12787832 2.64829394 237.95400099 2.63721999 233.78002977 2.62812614 C229.336219 2.61623331 224.89246877 2.59281201 220.44869995 2.57055664 C212.87170938 2.53402199 205.29471792 2.5040493 197.71768188 2.47872925 C185.96172123 2.43926095 174.20584253 2.38650853 162.44995117 2.33032227 C161.48253939 2.32571295 160.5151276 2.32110363 159.51840031 2.31635463 C155.62120896 2.29777295 151.72401778 2.27915931 147.82682735 2.26038712 C142.01006059 2.23240975 136.19329032 2.20541137 130.37651545 2.17917818 C99.18709017 2.03809586 68.00026127 1.79646749 36.8125 1.4375 C34.82274402 1.41492217 32.83298776 1.39236941 30.8432312 1.36984253 C20.56207261 1.25292853 10.28099219 1.13075689 0 1 C0 0.67 0 0.34 0 0 Z " fill="#B5D8F7" transform="translate(519,501)"/>
<path d="M0 0 C2.32442739 -0.00067502 4.64885471 -0.0016467 6.97328186 -0.00289917 C11.8271655 -0.00436708 16.68103064 -0.00225104 21.53491211 0.00244141 C27.72223098 0.00813491 33.90950642 0.00485627 40.09682369 -0.00113106 C44.89181336 -0.00476393 49.68679292 -0.00358555 54.48178291 -0.00100327 C56.76169401 -0.00034136 59.04160605 -0.00113634 61.32151604 -0.00348282 C92.55099119 -0.02857585 92.55099119 -0.02857585 99.03515625 2.1328125 C98.70515625 2.7928125 98.37515625 3.4528125 98.03515625 4.1328125 C29.23015625 3.6378125 29.23015625 3.6378125 -40.96484375 3.1328125 C-29.52180999 -2.58870438 -12.53041541 -0.012883 0 0 Z " fill="#3F1BAB" transform="translate(467.96484375,514.8671875)"/>
<path d="M0 0 C12.72750394 -0.02330309 25.45500269 -0.04100582 38.18252373 -0.05181217 C44.09418371 -0.05700204 50.00582896 -0.06402779 55.91748047 -0.07543945 C61.63632474 -0.08640821 67.35515495 -0.09230608 73.07400894 -0.09487724 C75.24176377 -0.09670654 77.40951795 -0.10027786 79.57726669 -0.10573006 C92.42366779 -0.13671745 105.18237303 0.11163403 118 1 C114.40062339 2.95686114 112.14034621 3.17126883 108.01953125 2.94140625 C106.85486328 2.88533203 105.69019531 2.82925781 104.49023438 2.77148438 C103.27658203 2.70251953 102.06292969 2.63355469 100.8125 2.5625 C98.42352334 2.43228595 96.03418907 2.30845608 93.64453125 2.19140625 C92.58596924 2.13154541 91.52740723 2.07168457 90.43676758 2.01000977 C87.81786954 2.00238209 85.53965032 2.15365061 82.96801758 2.4934082 C76.60903343 3.26390968 70.26032473 3.03300249 63.8671875 2.9140625 C62.50351571 2.89221869 61.1398375 2.87077277 59.77615356 2.84970093 C56.92686713 2.80444015 54.07768401 2.75528062 51.22851562 2.703125 C47.6218294 2.63728409 44.01507208 2.57976888 40.40820122 2.52509499 C37.59214141 2.48168529 34.77615622 2.43441105 31.96017838 2.38599777 C29.99812912 2.35272321 28.03603675 2.32202128 26.07394409 2.29141235 C17.35404261 2.12728159 8.69505003 1.65106258 0 1 C0 0.67 0 0.34 0 0 Z " fill="#210E9A" transform="translate(395,551)"/>
<path d="M0 0 C1.2065625 0.0309375 1.2065625 0.0309375 2.4375 0.0625 C-1.07699718 3.37205413 -3.7236826 3.43380301 -8.45941162 3.42326355 C-9.15294967 3.42582682 -9.84648772 3.4283901 -10.56104207 3.43103105 C-12.8843559 3.43597147 -15.2070195 3.41947241 -17.53027344 3.40307617 C-19.19586675 3.40222995 -20.86146118 3.40270494 -22.52705383 3.40440369 C-27.04949787 3.40526527 -31.57170374 3.38761316 -36.09409237 3.36668181 C-40.81997918 3.34794216 -45.54587131 3.34616671 -50.27178955 3.34260559 C-59.221324 3.33327715 -68.17074865 3.30865255 -77.12023473 3.27855712 C-87.30875178 3.24503798 -97.49727405 3.22853336 -107.6858325 3.21347082 C-128.64478297 3.18210371 -149.60363457 3.12932767 -170.5625 3.0625 C-170.5625 2.7325 -170.5625 2.4025 -170.5625 2.0625 C-169.7027485 2.05826806 -168.842997 2.05403612 -167.95719242 2.04967594 C-147.06877119 1.94651677 -126.18038461 1.83790144 -105.29202366 1.72316074 C-95.19070676 1.6678063 -85.08938633 1.61432072 -74.98803711 1.56518555 C-66.18703316 1.52237085 -57.38605546 1.47609982 -48.58509201 1.42562145 C-43.92205273 1.39899857 -39.25901873 1.37414504 -34.59594917 1.35342598 C-30.21215083 1.33389329 -25.82840253 1.30975983 -21.44464874 1.28200912 C-19.83090813 1.27262078 -18.21715652 1.26495196 -16.60339928 1.25908089 C-14.40978416 1.25084985 -12.21629151 1.23658201 -10.02272034 1.22071838 C-8.7921267 1.21426583 -7.56153307 1.20781328 -6.29364872 1.2011652 C-3.17851174 1.04300424 -3.06193773 0.07468141 0 0 Z " fill="#C75BA5" transform="translate(310.5625,456.9375)"/>
<path d="M0 0 C1.26912861 0.00576679 1.26912861 0.00576679 2.56389618 0.01165009 C3.51834373 0.01372215 4.47279129 0.01579422 5.4561615 0.01792908 C6.499076 0.0254847 7.54199051 0.03304031 8.61650848 0.04082489 C9.69662453 0.04497658 10.77674057 0.04912827 11.8895874 0.05340576 C15.28235158 0.06852407 18.67497893 0.09156265 22.06768036 0.11699677 C23.58716782 0.127556 23.58716782 0.127556 25.13735199 0.13832855 C32.18720967 0.18939178 39.23679106 0.26092977 46.28643036 0.33574677 C48.49415226 0.35827339 50.70187527 0.3806914 52.9095993 0.40300751 C58.63035457 0.4611174 64.35109387 0.52067 70.07183075 0.58055878 C75.94543809 0.64178064 81.81905982 0.7015888 87.69268036 0.76152802 C99.15102793 0.87866064 110.60935907 0.99732259 122.06768036 1.11699677 C122.06768036 1.44699677 122.06768036 1.77699677 122.06768036 2.11699677 C121.45237489 2.1212287 120.83706942 2.12546064 120.20311832 2.12982082 C105.20359237 2.23330635 90.20411352 2.34197012 75.20466709 2.45633602 C67.9509314 2.51151965 60.6971908 2.56497646 53.44341278 2.61431122 C47.11806768 2.65733592 40.79275662 2.70365857 34.46746439 2.75387532 C31.12096917 2.78032985 27.77449129 2.80468566 24.42795753 2.82607079 C20.68420121 2.85027445 16.94053297 2.88030653 13.19683075 2.9116745 C12.09774887 2.91742996 10.99866699 2.92318542 9.8662796 2.9291153 C3.85805999 2.9861888 -1.97295515 3.34113796 -7.93231964 4.11699677 C-8.26231964 3.12699677 -8.59231964 2.13699677 -8.93231964 1.11699677 C-7.47825714 1.14793427 -7.47825714 1.14793427 -5.99481964 1.17949677 C-2.72744494 1.11281565 -2.84014706 0.17196328 0 0 Z " fill="#E95329" transform="translate(565.9323196411133,203.88300323486328)"/>
<path d="M0 0 C4.75 1.875 4.75 1.875 7 3 C13.29242086 4.07377275 19.6514896 4.16387365 26.01782227 4.20532227 C27.4535685 4.22017166 27.4535685 4.22017166 28.9183197 4.23532104 C32.05099091 4.26665938 35.18367723 4.29158292 38.31640625 4.31640625 C40.50073112 4.33699973 42.68505222 4.3579968 44.86936951 4.37937927 C50.59523448 4.43435282 56.32113393 4.48387027 62.04705811 4.53222656 C67.89924152 4.58262299 73.75137538 4.638214 79.60351562 4.69335938 C91.068968 4.80063825 102.53446355 4.90214941 114 5 C114 5.33 114 5.66 114 6 C100.41333907 6.04634073 86.82669694 6.08187811 73.23997307 6.10362434 C66.9311125 6.11406143 60.62230601 6.12821942 54.31347656 6.15087891 C48.22510369 6.17260972 42.13678284 6.18456919 36.04837418 6.18975449 C33.72555854 6.19344979 31.40274574 6.20066575 29.07995224 6.21146011 C25.82651365 6.225978 22.57328999 6.22797779 19.31982422 6.22705078 C18.35956833 6.23424133 17.39931244 6.24143188 16.40995789 6.24884033 C11.56697193 6.2339088 7.49656721 6.03460938 3 4 C1.125 1.875 1.125 1.875 0 0 Z " fill="#DD8F38" transform="translate(385,544)"/>
<path d="M0 0 C-0.33 0.66 -0.66 1.32 -1 2 C-16.18 2 -31.36 2 -47 2 C-47 1.34 -47 0.68 -47 0 C-31.2565965 -1.08632827 -15.75404718 -0.8260058 0 0 Z " fill="#3765DF" transform="translate(624,625)"/>
<path d="M0 0 C17.49 0 34.98 0 53 0 C51 2 51 2 49.08325195 2.24291992 C48.30941162 2.23881104 47.53557129 2.23470215 46.73828125 2.23046875 C45.87291748 2.22917969 45.00755371 2.22789062 44.1159668 2.2265625 C43.19082275 2.21367188 42.26567871 2.20078125 41.3125 2.1875 C40.3738208 2.18105469 39.4351416 2.17460938 38.46801758 2.16796875 C30.61803035 2.08238844 22.82094876 1.67276979 15 1 C15 1.66 15 2.32 15 3 C12.68690295 2.88658363 10.37449815 2.75896193 8.0625 2.625 C6.13083984 2.52058594 6.13083984 2.52058594 4.16015625 2.4140625 C2.59587891 2.20910156 2.59587891 2.20910156 1 2 C0.67 1.34 0.34 0.68 0 0 Z " fill="#E59539" transform="translate(412,519)"/>
<path d="M0 0 C1.83485962 0.48218994 1.83485962 0.48218994 3.70678711 0.97412109 C9.69000693 2.29731004 15.58432025 2.35189435 21.69140625 2.4140625 C23.4701841 2.44311172 23.4701841 2.44311172 25.28489685 2.4727478 C29.04402648 2.53216194 32.80318737 2.57877598 36.5625 2.625 C39.12305967 2.66321489 41.68360696 2.70226863 44.24414062 2.7421875 C50.4959833 2.83783191 56.7479015 2.92298942 63 3 C59.83552195 4.85400169 57.51702711 5.252314 53.86767578 5.25878906 C52.84626495 5.26509338 51.82485413 5.27139771 50.77249146 5.27789307 C49.12553787 5.27182037 49.12553787 5.27182037 47.4453125 5.265625 C46.311008 5.26753845 45.17670349 5.2694519 44.00802612 5.27142334 C41.60902688 5.27278408 39.21002024 5.26909542 36.81103516 5.26074219 C33.14598957 5.25006117 29.48143637 5.26063132 25.81640625 5.2734375 C23.48437392 5.2721155 21.1523419 5.26955226 18.8203125 5.265625 C17.72639191 5.26967346 16.63247131 5.27372192 15.50540161 5.27789307 C5.39758713 5.21588862 5.39758713 5.21588862 1 3 C0.67 2.01 0.34 1.02 0 0 Z " fill="#3136D0" transform="translate(513,500)"/>
<path d="M0 0 C1.8469284 0.04016118 3.69394037 0.07665734 5.54101562 0.109375 C10.05024963 0.19720732 14.55545455 0.33505781 19.0625 0.5 C19.5575 1.49 19.5575 1.49 20.0625 2.5 C14.99048214 2.52471188 9.91849929 2.54286564 4.84643555 2.55493164 C3.1208434 2.55996158 1.39525552 2.56678626 -0.33032227 2.57543945 C-2.8100693 2.58756361 -5.28976 2.59324169 -7.76953125 2.59765625 C-8.92748955 2.60539818 -8.92748955 2.60539818 -10.10884094 2.61329651 C-13.3205228 2.61363318 -15.86770266 2.52326578 -18.9375 1.5 C-19.205625 2.11875 -19.47375 2.7375 -19.75 3.375 C-20.9375 5.5 -20.9375 5.5 -23.9375 7.5 C-24.73187923 9.68505129 -24.73187923 9.68505129 -25.125 12.125 C-25.28355469 12.94226563 -25.44210938 13.75953125 -25.60546875 14.6015625 C-25.71503906 15.22804688 -25.82460937 15.85453125 -25.9375 16.5 C-26.2675 16.5 -26.5975 16.5 -26.9375 16.5 C-27.54249262 11.66005905 -27.44106385 8.35962821 -24.65625 4.25 C-18.54931594 -2.38255305 -8.24151314 -0.31058587 0 0 Z " fill="#C33081" transform="translate(156.9375,434.5)"/>
<path d="M0 0 C-0.5261792 0.23485107 -1.0523584 0.46970215 -1.59448242 0.71166992 C-19.11258364 8.60531385 -35.0760053 18.29792788 -51 29 C-51.33 28.34 -51.66 27.68 -52 27 C-38.68953727 17.89386101 -25.17780705 9.31293965 -10.625 2.3125 C-9.90521973 1.96106934 -9.18543945 1.60963867 -8.44384766 1.24755859 C-3.36470409 -1.12156803 -3.36470409 -1.12156803 0 0 Z " fill="#E95D32" transform="translate(547,176)"/>
<path d="M0 0 C1.0996106 0.01401855 1.0996106 0.01401855 2.22143555 0.02832031 C3.04329346 0.03275146 3.86515137 0.03718262 4.71191406 0.04174805 C5.58517334 0.06309814 6.45843262 0.08444824 7.3581543 0.10644531 C8.25010498 0.11812744 9.14205566 0.12980957 10.06103516 0.1418457 C29.39667656 0.47345273 29.39667656 0.47345273 35.0456543 2.35644531 C34.7156543 3.01644531 34.3856543 3.67644531 34.0456543 4.35644531 C14.7406543 3.86144531 14.7406543 3.86144531 -4.9543457 3.35644531 C-1.9543457 0.35644531 -1.9543457 0.35644531 0 0 Z " fill="#3737CF" transform="translate(531.954345703125,514.6435546875)"/>
<path d="M0 0 C0.66 0.33 1.32 0.66 2 1 C1.37339478 1.57331055 1.37339478 1.57331055 0.73413086 2.15820312 C-9.39792786 11.41021421 -9.39792786 11.41021421 -18.65234375 21.51953125 C-20.51302962 23.56358906 -22.5275005 24.79716241 -25 26 C-26.33381889 26.66569467 -27.66722831 27.33221124 -29 28 C-28.61328125 27.55269531 -28.2265625 27.10539062 -27.828125 26.64453125 C-27.30734375 26.03996094 -26.7865625 25.43539062 -26.25 24.8125 C-25.69570313 24.16925781 -25.14140625 23.52601563 -24.5703125 22.86328125 C-23.37606583 21.44622736 -22.2369065 19.982542 -21.125 18.5 C-17.49119275 14.22493264 -13.38916422 9.79638807 -8 8 C-8 7.34 -8 6.68 -8 6 C-6.25 4.4921875 -6.25 4.4921875 -4 2.875 C-3.2575 2.33617187 -2.515 1.79734375 -1.75 1.2421875 C-0.88375 0.62730469 -0.88375 0.62730469 0 0 Z " fill="#E85333" transform="translate(493,205)"/>
<path d="M0 0 C-1.11375 0.4125 -2.2275 0.825 -3.375 1.25 C-13.47888586 5.00621245 -13.47888586 5.00621245 -23 10 C-24.98451771 10.71143088 -26.98202112 11.38991336 -29 12 C-29 11.01 -29 10.02 -29 9 C-27.68 8.67 -26.36 8.34 -25 8 C-26.65 7.67 -28.3 7.34 -30 7 C-30 6.67 -30 6.34 -30 6 C-29.04480469 5.74605469 -28.08960938 5.49210937 -27.10546875 5.23046875 C-26.48454346 5.06506592 -25.86361816 4.89966309 -25.22387695 4.72924805 C-23.85944195 4.36626024 -22.49469176 4.00445528 -21.12963867 3.64379883 C-17.97298357 2.80700109 -14.82945095 1.95000453 -11.6953125 1.03125 C-10.74398437 0.7528125 -9.79265625 0.474375 -8.8125 0.1875 C-7.97332031 -0.06644531 -7.13414062 -0.32039063 -6.26953125 -0.58203125 C-3.81928058 -1.03328223 -2.33916165 -0.79047532 0 0 Z " fill="#4F3294" transform="translate(547,443)"/>
<path d="M0 0 C11.55 0 23.1 0 35 0 C32 3 32 3 28.72192383 3.2487793 C27.38303091 3.20645038 26.04460242 3.14722119 24.70703125 3.07421875 C24.00100266 3.04777786 23.29497406 3.02133698 22.56755066 2.99409485 C20.31499992 2.90639949 18.06407426 2.79723333 15.8125 2.6875 C14.28456324 2.62423374 12.75656779 2.56236792 11.22851562 2.50195312 C7.48480269 2.35087087 3.7424039 2.18052823 0 2 C0 1.34 0 0.68 0 0 Z " fill="#E9C046" transform="translate(529,519)"/>
<path d="M0 0 C1.2065625 0.0309375 1.2065625 0.0309375 2.4375 0.0625 C-0.88241881 3.07913365 -3.09054371 3.43102073 -7.52441406 3.40307617 C-8.72535706 3.40284958 -9.92630005 3.40262299 -11.16363525 3.40238953 C-12.45541687 3.38690567 -13.74719849 3.37142181 -15.078125 3.35546875 C-16.41761805 3.34987052 -17.75711726 3.34560149 -19.09661865 3.34260559 C-22.61487921 3.33117454 -26.13276571 3.30172294 -29.65087891 3.26849365 C-33.24376364 3.23775489 -36.83670906 3.22409216 -40.4296875 3.20898438 C-47.47411096 3.17685113 -54.518281 3.12567621 -61.5625 3.0625 C-61.5625 2.7325 -61.5625 2.4025 -61.5625 2.0625 C-60.83809219 2.05219254 -60.11368439 2.04188507 -59.36732483 2.03126526 C-52.55398098 1.93345232 -45.740722 1.83096141 -38.92752934 1.72316074 C-35.42445645 1.66790045 -31.92137527 1.61447566 -28.41821289 1.56518555 C-24.39459856 1.50849332 -20.37114469 1.44392599 -16.34765625 1.37890625 C-15.08413834 1.36219376 -13.82062042 1.34548126 -12.51881409 1.32826233 C-11.357686 1.30831711 -10.19655792 1.28837189 -9.00024414 1.26782227 C-7.97210098 1.25227798 -6.94395782 1.2367337 -5.88465881 1.22071838 C-3.03359854 1.02646373 -2.94188261 0.07175323 0 0 Z " fill="#BD58CE" transform="translate(310.5625,456.9375)"/>
<path d="M0 0 C0.66 0.99 1.32 1.98 2 3 C1.53560525 4.65855268 1.06132645 6.31561249 0.515625 7.94921875 C-0.40664633 11.61734337 -0.11575645 15.23791534 0 19 C5.28 19 10.56 19 16 19 C16 19.33 16 19.66 16 20 C13.20807795 20.05380578 10.4171859 20.09357669 7.625 20.125 C6.8309375 20.14175781 6.036875 20.15851562 5.21875 20.17578125 C3.14507985 20.19335473 1.07116759 20.10335168 -1 20 C-3.45996775 17.54003225 -3.29676247 16.76381446 -3.3125 13.375 C-3.23164798 8.31807341 -2.04369263 4.59830842 0 0 Z " fill="#37167D" transform="translate(411,498)"/>
<path d="M0 0 C0.88945313 0.00644531 1.77890625 0.01289063 2.6953125 0.01953125 C3.61570312 0.03628906 4.53609375 0.05304688 5.484375 0.0703125 C6.42023437 0.07933594 7.35609375 0.08835938 8.3203125 0.09765625 C10.62526157 0.12117614 12.9296866 0.15404397 15.234375 0.1953125 C14.234375 3.1953125 14.234375 3.1953125 12.234375 4.1953125 C10.23477488 4.2353045 8.23390258 4.23878049 6.234375 4.1953125 C6.234375 3.5353125 6.234375 2.8753125 6.234375 2.1953125 C1.284375 2.1953125 -3.665625 2.1953125 -8.765625 2.1953125 C-5.02111768 0.32305884 -3.91535309 -0.05019683 0 0 Z " fill="#D93F38" transform="translate(542.765625,205.8046875)"/>
<path d="M0 0 C-3.27830237 2.18553492 -5.16767931 2.51129923 -9.0234375 3.0703125 C-10.80234375 3.33134766 -10.80234375 3.33134766 -12.6171875 3.59765625 C-13.85726562 3.77167969 -15.09734375 3.94570313 -16.375 4.125 C-17.60734375 4.30675781 -18.8396875 4.48851562 -20.109375 4.67578125 C-30.10011253 6.11696139 -30.10011253 6.11696139 -35 6 C-28.02129703 -0.97870297 -9.52027183 -0.17630133 0 0 Z " fill="#F5D27C" transform="translate(569,293)"/>
<path d="M0 0 C1.10740461 3.32221382 0.97233311 5.64103108 0 9 C-0.66 9.66 -1.32 10.32 -2 11 C-2.30131609 13.30722032 -2.37791545 15.58163271 -2.4609375 17.90625 C-3 20 -3 20 -5.0390625 21.28125 C-5.68617188 21.5184375 -6.33328125 21.755625 -7 22 C-6.67 23.65 -6.34 25.3 -6 27 C-6.99 27 -7.98 27 -9 27 C-8.3673112 21.54305913 -6.53964096 16.86245443 -4.5 11.8125 C-3.86408196 10.21504325 -3.22864509 8.61739484 -2.59375 7.01953125 C-2.31208984 6.31932861 -2.03042969 5.61912598 -1.74023438 4.89770508 C-1.11062073 3.28359333 -0.54788412 1.64365236 0 0 Z " fill="#89297E" transform="translate(636,330)"/>
<path d="M0 0 C0 3 0 3 -2 6 C10.87 6.495 10.87 6.495 24 7 C24 7.33 24 7.66 24 8 C13.44 8 2.88 8 -8 8 C-3 2 -3 2 0 0 Z " fill="#450C80" transform="translate(599,414)"/>
<path d="M0 0 C14.19 0 28.38 0 43 0 C43 0.33 43 0.66 43 1 C41.21384277 1.029729 41.21384277 1.029729 39.39160156 1.06005859 C34.97081468 1.13616995 30.55035457 1.22487894 26.12988281 1.31738281 C24.21718805 1.35564968 22.30442189 1.39050658 20.39160156 1.421875 C17.64101658 1.46757527 14.89092217 1.52556145 12.140625 1.5859375 C11.28631897 1.59748871 10.43201294 1.60903992 9.55181885 1.62094116 C8.75129089 1.64081085 7.95076294 1.66068054 7.12597656 1.68115234 C6.07340668 1.70113785 6.07340668 1.70113785 4.99957275 1.7215271 C2.68156921 2.04434665 1.02866316 2.85873038 -1 4 C-0.67 2.68 -0.34 1.36 0 0 Z " fill="#3E82F1" transform="translate(241,494)"/>
<path d="M0 0 C1.00023193 0.00523682 2.00046387 0.01047363 3.03100586 0.01586914 C4.1105957 0.0190918 5.19018555 0.02231445 6.30249023 0.02563477 C8.00695312 0.03820312 8.00695312 0.03820312 9.74584961 0.05102539 C11.45611328 0.05779297 11.45611328 0.05779297 13.20092773 0.06469727 C16.02845312 0.07652792 18.85587601 0.09301129 21.68334961 0.11352539 C21.68334961 0.44352539 21.68334961 0.77352539 21.68334961 1.11352539 C17.4520817 2.09754118 13.25731235 2.39031047 8.93334961 2.61352539 C3.15494492 2.94004483 -2.57307691 3.39557871 -8.31665039 4.11352539 C-8.64665039 3.12352539 -8.97665039 2.13352539 -9.31665039 1.11352539 C-7.86258789 1.14446289 -7.86258789 1.14446289 -6.37915039 1.17602539 C-3.04086951 1.10789721 -3.06360703 0.15012934 0 0 Z " fill="#E94C2E" transform="translate(566.316650390625,203.886474609375)"/>
<path d="M0 0 C1.5 1.375 1.5 1.375 3 3 C3 3.66 3 4.32 3 5 C3.66 5.33 4.32 5.66 5 6 C4.01 6 3.02 6 2 6 C2.061875 7.8253125 2.061875 7.8253125 2.125 9.6875 C2.117148 14.1317304 1.36946969 17.27327735 -1.4375 20.8125 C-3 22 -3 22 -6 22 C-6 21.34 -6 20.68 -6 20 C-5.38125 19.401875 -4.7625 18.80375 -4.125 18.1875 C-1.12669659 15.10101119 -0.09439109 12.39887591 0.1953125 8.10546875 C0.17210937 7.14253906 0.14890625 6.17960938 0.125 5.1875 C0.10695313 4.21167969 0.08890625 3.23585938 0.0703125 2.23046875 C0.04710937 1.49441406 0.02390625 0.75835938 0 0 Z " fill="#424FB0" transform="translate(574,527)"/>
<path d="M0 0 C0.99 0 1.98 0 3 0 C1.51194289 5.80342274 -1.59097555 10.17590879 -5 15 C-5.66 14.67 -6.32 14.34 -7 14 C-4.9914235 9.07898758 -2.70739406 4.57456238 0 0 Z " fill="#641D90" transform="translate(611,394)"/>
<path d="M0 0 C0.33 0.66 0.66 1.32 1 2 C1.99 2.33 2.98 2.66 4 3 C0.89857059 3.70026518 -2.2064641 4.38298456 -5.3125 5.0625 C-6.19357422 5.26166016 -7.07464844 5.46082031 -7.98242188 5.66601562 C-8.82998047 5.84970703 -9.67753906 6.03339844 -10.55078125 6.22265625 C-11.72120972 6.48187866 -11.72120972 6.48187866 -12.9152832 6.74633789 C-15 7 -15 7 -18 6 C-16.76115681 5.27232997 -15.50831659 4.56845185 -14.25 3.875 C-13.55390625 3.48054688 -12.8578125 3.08609375 -12.140625 2.6796875 C-10 2 -10 2 -7.734375 2.8828125 C-6.87585938 3.43582031 -6.87585938 3.43582031 -6 4 C-6 3.34 -6 2.68 -6 2 C-4.02 1.34 -2.04 0.68 0 0 Z " fill="#C1683D" transform="translate(513,447)"/>
<path d="M0 0 C1.7325 0.4640625 1.7325 0.4640625 3.5 0.9375 C10.55670372 2.53460309 17.79597415 2.66410677 25 3 C25 3.33 25 3.66 25 4 C22.12546578 4.22297226 19.2513818 4.42878171 16.375 4.625 C15.56675781 4.68945312 14.75851562 4.75390625 13.92578125 4.8203125 C9.19172985 5.12821828 5.37824459 5.14078205 1 3 C0.67 2.01 0.34 1.02 0 0 Z " fill="#2E1DBF" transform="translate(513,500)"/>
<path d="M0 0 C1.485 0.99 1.485 0.99 3 2 C3.28029781 4.63419666 3.37656602 6.99592023 3.3125 9.625 C3.30412109 10.346875 3.29574219 11.06875 3.28710938 11.8125 C3.17451317 16.80276384 2.58567992 21.24296023 1 26 C-0.70301087 21.05375519 0.38975454 15.92650868 0.84375 10.82421875 C1.00100968 6.97528801 0.66381425 3.77300304 0 0 Z " fill="#F7D883" transform="translate(837,81)"/>
<path d="M0 0 C1.2684375 0.2475 1.2684375 0.2475 2.5625 0.5 C2.5625 1.16 2.5625 1.82 2.5625 2.5 C0.9125 2.17 -0.7375 1.84 -2.4375 1.5 C-2.705625 2.11875 -2.97375 2.7375 -3.25 3.375 C-4.4375 5.5 -4.4375 5.5 -7.4375 7.5 C-8.23187923 9.68505129 -8.23187923 9.68505129 -8.625 12.125 C-8.78355469 12.94226563 -8.94210938 13.75953125 -9.10546875 14.6015625 C-9.21503906 15.22804688 -9.32460937 15.85453125 -9.4375 16.5 C-9.7675 16.5 -10.0975 16.5 -10.4375 16.5 C-10.95282599 12.37739206 -11.2116038 9.82831724 -9.08984375 6.1875 C-4.60695876 0.67010309 -4.60695876 0.67010309 0 0 Z " fill="#D65F9A" transform="translate(140.4375,434.5)"/>
<path d="M0 0 C1.44139075 4.32417224 0.02415788 7.35903495 -1.25 11.625 C-1.46785156 12.41390625 -1.68570313 13.2028125 -1.91015625 14.015625 C-2.50578767 16.04286176 -3.24400871 18.02694581 -4 20 C-4.99 20.33 -5.98 20.66 -7 21 C-6.34539858 18.22948779 -5.54456107 15.57195875 -4.58984375 12.890625 C-4.32236328 12.13652344 -4.05488281 11.38242187 -3.77929688 10.60546875 C-3.36260742 9.43951172 -3.36260742 9.43951172 -2.9375 8.25 C-2.65583984 7.45722656 -2.37417969 6.66445313 -2.08398438 5.84765625 C-1.39098013 3.8978477 -0.69571181 1.94884411 0 0 Z " fill="#8DDEF8" transform="translate(794,541)"/>
<path d="M0 0 C0.66 0 1.32 0 2 0 C0.97137215 5.44567686 -0.24614784 10.11817117 -3 15 C-4.43410153 11.21180727 -3.51009497 8.93478721 -2.0625 5.25 C-1.49208984 3.77273438 -1.49208984 3.77273438 -0.91015625 2.265625 C-0.60980469 1.51796875 -0.30945313 0.7703125 0 0 Z " fill="#E5AA42" transform="translate(635,327)"/>
<path d="M0 0 C4.75 1.875 4.75 1.875 7 3 C9.33189345 3.26955833 11.66321507 3.44507377 14.00390625 3.62109375 C14.66261719 3.74613281 15.32132812 3.87117187 16 4 C16.33 4.66 16.66 5.32 17 6 C11.87347454 6.17677674 7.7488069 6.2087474 3 4 C1.125 1.875 1.125 1.875 0 0 Z " fill="#D27E3C" transform="translate(385,544)"/>
<path d="M0 0 C0.66 0.33 1.32 0.66 2 1 C0.38113585 2.67262717 -1.2452729 4.33795537 -2.875 6 C-3.77992188 6.928125 -4.68484375 7.85625 -5.6171875 8.8125 C-8 11 -8 11 -10 11 C-8.55218207 7.55571735 -6.72305391 5.63869038 -3.875 3.25 C-3.15054688 2.63640625 -2.42609375 2.0228125 -1.6796875 1.390625 C-0.84824219 0.70226562 -0.84824219 0.70226562 0 0 Z " fill="#D5CCE8" transform="translate(517,455)"/>
<path d="M0 0 C2.475 0.495 2.475 0.495 5 1 C5 1.66 5 2.32 5 3 C7.64 3 10.28 3 13 3 C12.67 3.99 12.34 4.98 12 6 C7.01208429 5.52496041 3.9767259 4.0298864 0 1 C0 0.67 0 0.34 0 0 Z " fill="#513DA7" transform="translate(390,549)"/>
<path d="M0 0 C-0.625 2.375 -0.625 2.375 -2 5 C-5.125 6.3125 -5.125 6.3125 -8 7 C-8 6.01 -8 5.02 -8 4 C-6.68 3.67 -5.36 3.34 -4 3 C-5.65 2.67 -7.3 2.34 -9 2 C-9 1.67 -9 1.34 -9 1 C-5.846632 0.29925156 -3.27275026 0 0 0 Z " fill="#492D96" transform="translate(526,448)"/>
<path d="M0 0 C6.6 0 13.2 0 20 0 C19.67 0.99 19.34 1.98 19 3 C17.68 3 16.36 3 15 3 C15 2.34 15 1.68 15 1 C10.05 1 5.1 1 0 1 C0 0.67 0 0.34 0 0 Z " fill="#CE3331" transform="translate(534,207)"/>
<path d="M0 0 C0 3.90838866 -1.50567876 5.11594107 -4 8 C-5.32 7.67 -6.64 7.34 -8 7 C-5.36 4.69 -2.72 2.38 0 0 Z " fill="#541583" transform="translate(599,414)"/>
<path d="M0 0 C0 0.66 0 1.32 0 2 C-0.86625 2.3403125 -0.86625 2.3403125 -1.75 2.6875 C-4.5663661 4.33038023 -6.08077114 6.39533227 -8 9 C-8.99 8.67 -9.98 8.34 -11 8 C-9.87811441 6.85111717 -8.75238316 5.70598863 -7.625 4.5625 C-6.99851562 3.92441406 -6.37203125 3.28632812 -5.7265625 2.62890625 C-3.74785826 0.76211967 -2.74097805 0 0 0 Z " fill="#5F40B9" transform="translate(530,576)"/>
<path d="M0 0 C0.9537802 3.45108257 1.07606914 5.52346894 0 9 C-1.2704964 11.04049422 -2.59431196 13.05017465 -4 15 C-5 13 -5 13 -4.00390625 9.9609375 C-3.52824219 8.77757812 -3.05257812 7.59421875 -2.5625 6.375 C-2.08941406 5.18648438 -1.61632812 3.99796875 -1.12890625 2.7734375 C-0.75636719 1.85820312 -0.38382813 0.94296875 0 0 Z " fill="#963770" transform="translate(636,330)"/>
<path d="M0 0 C5.02265357 1.18180084 8.0949151 2.44992282 12 6 C7.01208429 5.52496041 3.9767259 4.0298864 0 1 C0 0.67 0 0.34 0 0 Z " fill="#8055D8" transform="translate(410,623)"/>
<path d="M0 0 C0.33 0 0.66 0 1 0 C1.63019694 10.15317287 1.63019694 10.15317287 -1 13.6875 C-1.66 14.120625 -2.32 14.55375 -3 15 C-3 12 -3 12 -2 9 C-1.34 9 -0.68 9 0 9 C0 6.03 0 3.06 0 0 Z " fill="#B952DA" transform="translate(317,442)"/>
<path d="M0 0 C0.66 0.33 1.32 0.66 2 1 C-0.64 3.64 -3.28 6.28 -6 9 C-6.66 8.67 -7.32 8.34 -8 8 C-7.04578192 6.85073734 -6.08647955 5.70569459 -5.125 4.5625 C-4.59132813 3.92441406 -4.05765625 3.28632812 -3.5078125 2.62890625 C-2 1 -2 1 0 0 Z " fill="#81D1F6" transform="translate(765,605)"/>
<path d="M0 0 C-1.15173355 2.46800047 -2.04783565 4.04783565 -4 6 C-4.99 6 -5.98 6 -7 6 C-7 4 -7 4 -5.1875 1.875 C-3 0 -3 0 0 0 Z " fill="#2D44B7" transform="translate(575,543)"/>
<path d="M0 0 C0.33 0.66 0.66 1.32 1 2 C1.66 2.33 2.32 2.66 3 3 C-1.455 3.495 -1.455 3.495 -6 4 C-6.33 3.01 -6.66 2.02 -7 1 C-5.5459375 1.0309375 -5.5459375 1.0309375 -4.0625 1.0625 C-1.12534105 1.35618499 -1.12534105 1.35618499 0 0 Z " fill="#E24B38" transform="translate(564,204)"/>
<path d="M0 0 C1.18234854 3.69483919 1.2804701 7.14353614 1 11 C-0.515625 12.71484375 -0.515625 12.71484375 -2 14 C-1.85866501 12.22880197 -1.71176792 10.45804713 -1.5625 8.6875 C-1.48128906 7.70136719 -1.40007813 6.71523437 -1.31640625 5.69921875 C-1 3 -1 3 0 0 Z " fill="#F8DEAD" transform="translate(834,117)"/>
<path d="M0 0 C1 2 1 2 0.25 4.5625 C-1 7 -1 7 -4 8 C-3.6875 5.125 -3.6875 5.125 -3 2 C-2.01 1.34 -1.02 0.68 0 0 Z " fill="#792B8A" transform="translate(619,380)"/>
<path d="M0 0 C0.66 0.33 1.32 0.66 2 1 C0.37660195 2.70884005 -1.29319053 4.37446717 -3 6 C-3.66 6 -4.32 6 -5 6 C-5.33 4.68 -5.66 3.36 -6 2 C-4.7934375 1.7834375 -4.7934375 1.7834375 -3.5625 1.5625 C-1.07896294 1.25864751 -1.07896294 1.25864751 0 0 Z " fill="#EE883C" transform="translate(383,529)"/>
<path d="M0 0 C3.3125 -0.25 3.3125 -0.25 7 0 C8.9375 2 8.9375 2 10 4 C9.01 4.495 9.01 4.495 8 5 C7.34 4.67 6.68 4.34 6 4 C6 3.34 6 2.68 6 2 C3.03 1.505 3.03 1.505 0 1 C0 0.67 0 0.34 0 0 Z " fill="#4E57BB" transform="translate(562,518)"/>
<path d="M0 0 C-1.32 1.32 -2.64 2.64 -4 4 C-4.66 3.67 -5.32 3.34 -6 3 C-5.67 2.34 -5.34 1.68 -5 1 C-5.66 0.67 -6.32 0.34 -7 0 C-3.86650268 -1.04449911 -3.01031744 -0.93423645 0 0 Z " fill="#5A3691" transform="translate(531,447)"/>
<path d="M0 0 C4.455 0.99 4.455 0.99 9 2 C8.34 2.66 7.68 3.32 7 4 C3.875 3.625 3.875 3.625 1 3 C0.67 2.01 0.34 1.02 0 0 Z " fill="#452AC2" transform="translate(513,500)"/>
</svg>
